solid
 facet normal  -6.0991434319e-16 1.9373564647e-01 9.8105376982e-01
   outer loop
     vertex 0.0000000000e+00 0.0000000000e+00 2.0000000000e+00
     vertex 7.1432226234e-01 0.0000000000e+00 2.0000000000e+00
     vertex 7.1432226234e-01 7.6591063793e-01 1.8487501938e+00
   endloop
 endfacet
 facet normal  -3.3506819945e-16 1.9373564647e-01 9.8105376982e-01
   outer loop
     vertex 0.0000000000e+00 0.0000000000e+00 2.0000000000e+00
     vertex 7.1432226234e-01 7.6591063793e-01 1.8487501938e+00
     vertex 0.0000000000e+00 7.6591063793e-01 1.8487501938e+00
   endloop
 endfacet
 facet normal  -3.4480602339e-16 5.5560796539e-01 8.3144439910e-01
   outer loop
     vertex 0.0000000000e+00 7.6591063793e-01 1.8487501938e+00
     vertex 7.1432226234e-01 7.6591063793e-01 1.8487501938e+00
     vertex 7.1432226234e-01 1.4150002563e+00 1.4149997678e+00
   endloop
 endfacet
 facet normal  -3.4541762919e-16 5.5560796539e-01 8.3144439910e-01
   outer loop
     vertex 0.0000000000e+00 7.6591063793e-01 1.8487501938e+00
     vertex 7.1432226234e-01 1.4150002563e+00 1.4149997678e+00
     vertex 0.0000000000e+00 1.4150002563e+00 1.4149997678e+00
   endloop
 endfacet
 facet normal  -5.1690336117e-16 8.3144460657e-01 5.5560765492e-01
   outer loop
     vertex 0.0000000000e+00 1.4150002563e+00 1.4149997678e+00
     vertex 7.1432226234e-01 1.4150002563e+00 1.4149997678e+00
     vertex 7.1432226234e-01 1.8487502179e+00 7.6591031964e-01
   endloop
 endfacet
 facet normal  -8.6170940080e-16 8.3144460657e-01 5.5560765492e-01
   outer loop
     vertex 0.0000000000e+00 1.4150002563e+00 1.4149997678e+00
     vertex 7.1432226234e-01 1.8487502179e+00 7.6591031964e-01
     vertex 0.0000000000e+00 1.8487502179e+00 7.6591031964e-01
   endloop
 endfacet
 facet normal  -9.4498254188e-16 9.8105376456e-01 1.9373567315e-01
   outer loop
     vertex 0.0000000000e+00 1.8487502179e+00 7.6591031964e-01
     vertex 7.1432226234e-01 1.8487502179e+00 7.6591031964e-01
     vertex 7.1432226234e-01 2.0000000000e+00 -8.6410206867e-08
   endloop
 endfacet
 facet normal  -6.0991433633e-16 9.8105376456e-01 1.9373567315e-01
   outer loop
     vertex 0.0000000000e+00 1.8487502179e+00 7.6591031964e-01
     vertex 7.1432226234e-01 2.0000000000e+00 -8.6410206867e-08
     vertex 0.0000000000e+00 2.0000000000e+00 -8.6410206867e-08
   endloop
 endfacet
 facet normal  -6.0991435755e-16 9.8105378715e-01 -1.9373555871e-01
   outer loop
     vertex 0.0000000000e+00 2.0000000000e+00 -8.6410206867e-08
     vertex 7.1432226234e-01 2.0000000000e+00 -8.6410206867e-08
     vertex 7.1432226234e-01 1.8487503213e+00 -7.6591043885e-01
   endloop
 endfacet
 facet normal  -3.3506819120e-16 9.8105378715e-01 -1.9373555871e-01
   outer loop
     vertex 0.0000000000e+00 2.0000000000e+00 -8.6410206867e-08
     vertex 7.1432226234e-01 1.8487503213e+00 -7.6591043885e-01
     vertex 0.0000000000e+00 1.8487503213e+00 -7.6591043885e-01
   endloop
 endfacet
 facet normal  -3.4480602596e-16 8.3144443187e-01 -5.5560791635e-01
   outer loop
     vertex 0.0000000000e+00 1.8487503213e+00 -7.6591043885e-01
     vertex 7.1432226234e-01 1.8487503213e+00 -7.6591043885e-01
     vertex 7.1432226234e-01 1.4150000179e+00 -1.4149999568e+00
   endloop
 endfacet
 facet normal  -4.3116042564e-16 8.3144443187e-01 -5.5560791635e-01
   outer loop
     vertex 0.0000000000e+00 1.8487503213e+00 -7.6591043885e-01
     vertex 7.1432226234e-01 1.4150000179e+00 -1.4149999568e+00
     vertex 0.0000000000e+00 1.4150000179e+00 -1.4149999568e+00
   endloop
 endfacet
 facet normal  -4.3116042590e-16 5.5560791888e-01 -8.3144443018e-01
   outer loop
     vertex 0.0000000000e+00 1.4150000179e+00 -1.4149999568e+00
     vertex 7.1432226234e-01 1.4150000179e+00 -1.4149999568e+00
     vertex 7.1432226234e-01 7.6591085609e-01 -1.8487500251e+00
   endloop
 endfacet
 facet normal  -4.3116042590e-16 5.5560791888e-01 -8.3144443018e-01
   outer loop
     vertex 0.0000000000e+00 1.4150000179e+00 -1.4149999568e+00
     vertex 7.1432226234e-01 7.6591085609e-01 -1.8487500251e+00
     vertex 0.0000000000e+00 7.6591085609e-01 -1.8487500251e+00
   endloop
 endfacet
 facet normal  -3.6517926594e-16 1.9373580131e-01 -9.8105373925e-01
   outer loop
     vertex 0.0000000000e+00 7.6591085609e-01 -1.8487500251e+00
     vertex 7.1432226234e-01 7.6591085609e-01 -1.8487500251e+00
     vertex 7.1432226234e-01 0.0000000000e+00 -2.0000000000e+00
   endloop
 endfacet
 facet normal  -6.0991432418e-16 1.9373580131e-01 -9.8105373925e-01
   outer loop
     vertex 0.0000000000e+00 7.6591085609e-01 -1.8487500251e+00
     vertex 7.1432226234e-01 0.0000000000e+00 -2.0000000000e+00
     vertex 0.0000000000e+00 0.0000000000e+00 -2.0000000000e+00
   endloop
 endfacet
 facet normal  -6.0991432418e-16 -1.9373580131e-01 -9.8105373925e-01
   outer loop
     vertex 0.0000000000e+00 0.0000000000e+00 -2.0000000000e+00
     vertex 7.1432226234e-01 0.0000000000e+00 -2.0000000000e+00
     vertex 7.1432226234e-01 -7.6591085609e-01 -1.8487500251e+00
   endloop
 endfacet
 facet normal  -3.6517926594e-16 -1.9373580131e-01 -9.8105373925e-01
   outer loop
     vertex 0.0000000000e+00 0.0000000000e+00 -2.0000000000e+00
     vertex 7.1432226234e-01 -7.6591085609e-01 -1.8487500251e+00
     vertex 0.0000000000e+00 -7.6591085609e-01 -1.8487500251e+00
   endloop
 endfacet
 facet normal  -4.3116042590e-16 -5.5560791888e-01 -8.3144443018e-01
   outer loop
     vertex 0.0000000000e+00 -7.6591085609e-01 -1.8487500251e+00
     vertex 7.1432226234e-01 -7.6591085609e-01 -1.8487500251e+00
     vertex 7.1432226234e-01 -1.4150000179e+00 -1.4149999568e+00
   endloop
 endfacet
 facet normal  -4.3116042590e-16 -5.5560791888e-01 -8.3144443018e-01
   outer loop
     vertex 0.0000000000e+00 -7.6591085609e-01 -1.8487500251e+00
     vertex 7.1432226234e-01 -1.4150000179e+00 -1.4149999568e+00
     vertex 0.0000000000e+00 -1.4150000179e+00 -1.4149999568e+00
   endloop
 endfacet
 facet normal  -4.3116042564e-16 -8.3144443187e-01 -5.5560791635e-01
   outer loop
     vertex 0.0000000000e+00 -1.4150000179e+00 -1.4149999568e+00
     vertex 7.1432226234e-01 -1.4150000179e+00 -1.4149999568e+00
     vertex 7.1432226234e-01 -1.8487503213e+00 -7.6591043885e-01
   endloop
 endfacet
 facet normal  -3.4480602596e-16 -8.3144443187e-01 -5.5560791635e-01
   outer loop
     vertex 0.0000000000e+00 -1.4150000179e+00 -1.4149999568e+00
     vertex 7.1432226234e-01 -1.8487503213e+00 -7.6591043885e-01
     vertex 0.0000000000e+00 -1.8487503213e+00 -7.6591043885e-01
   endloop
 endfacet
 facet normal  -3.3506819120e-16 -9.8105378715e-01 -1.9373555871e-01
   outer loop
     vertex 0.0000000000e+00 -1.8487503213e+00 -7.6591043885e-01
     vertex 7.1432226234e-01 -1.8487503213e+00 -7.6591043885e-01
     vertex 7.1432226234e-01 -2.0000000000e+00 -8.6410206867e-08
   endloop
 endfacet
 facet normal  -6.0991435755e-16 -9.8105378715e-01 -1.9373555871e-01
   outer loop
     vertex 0.0000000000e+00 -1.8487503213e+00 -7.6591043885e-01
     vertex 7.1432226234e-01 -2.0000000000e+00 -8.6410206867e-08
     vertex 0.0000000000e+00 -2.0000000000e+00 -8.6410206867e-08
   endloop
 endfacet
 facet normal  -6.0991433633e-16 -9.8105376456e-01 1.9373567315e-01
   outer loop
     vertex 0.0000000000e+00 -2.0000000000e+00 -8.6410206867e-08
     vertex 7.1432226234e-01 -2.0000000000e+00 -8.6410206867e-08
     vertex 7.1432226234e-01 -1.8487502179e+00 7.6591031964e-01
   endloop
 endfacet
 facet normal  -9.4498254188e-16 -9.8105376456e-01 1.9373567315e-01
   outer loop
     vertex 0.0000000000e+00 -2.0000000000e+00 -8.6410206867e-08
     vertex 7.1432226234e-01 -1.8487502179e+00 7.6591031964e-01
     vertex 0.0000000000e+00 -1.8487502179e+00 7.6591031964e-01
   endloop
 endfacet
 facet normal  -8.6170940080e-16 -8.3144460657e-01 5.5560765492e-01
   outer loop
     vertex 0.0000000000e+00 -1.8487502179e+00 7.6591031964e-01
     vertex 7.1432226234e-01 -1.8487502179e+00 7.6591031964e-01
     vertex 7.1432226234e-01 -1.4150002563e+00 1.4149997678e+00
   endloop
 endfacet
 facet normal  -5.1690336117e-16 -8.3144460657e-01 5.5560765492e-01
   outer loop
     vertex 0.0000000000e+00 -1.8487502179e+00 7.6591031964e-01
     vertex 7.1432226234e-01 -1.4150002563e+00 1.4149997678e+00
     vertex 0.0000000000e+00 -1.4150002563e+00 1.4149997678e+00
   endloop
 endfacet
 facet normal  -3.4541762919e-16 -5.5560796539e-01 8.3144439910e-01
   outer loop
     vertex 0.0000000000e+00 -1.4150002563e+00 1.4149997678e+00
     vertex 7.1432226234e-01 -1.4150002563e+00 1.4149997678e+00
     vertex 7.1432226234e-01 -7.6591063793e-01 1.8487501938e+00
   endloop
 endfacet
 facet normal  -3.4480602339e-16 -5.5560796539e-01 8.3144439910e-01
   outer loop
     vertex 0.0000000000e+00 -1.4150002563e+00 1.4149997678e+00
     vertex 7.1432226234e-01 -7.6591063793e-01 1.8487501938e+00
     vertex 0.0000000000e+00 -7.6591063793e-01 1.8487501938e+00
   endloop
 endfacet
 facet normal  -3.3506819945e-16 -1.9373564647e-01 9.8105376982e-01
   outer loop
     vertex 0.0000000000e+00 -7.6591063793e-01 1.8487501938e+00
     vertex 7.1432226234e-01 -7.6591063793e-01 1.8487501938e+00
     vertex 7.1432226234e-01 0.0000000000e+00 2.0000000000e+00
   endloop
 endfacet
 facet normal  -6.0991434319e-16 -1.9373564647e-01 9.8105376982e-01
   outer loop
     vertex 0.0000000000e+00 -7.6591063793e-01 1.8487501938e+00
     vertex 7.1432226234e-01 0.0000000000e+00 2.0000000000e+00
     vertex 0.0000000000e+00 0.0000000000e+00 2.0000000000e+00
   endloop
 endfacet
 facet normal  5.1842719171e-16 1.9373564647e-01 9.8105376982e-01
   outer loop
     vertex 7.1432226234e-01 0.0000000000e+00 2.0000000000e+00
     vertex 1.5547013945e+00 0.0000000000e+00 2.0000000000e+00
     vertex 1.5547013945e+00 7.6591063793e-01 1.8487501938e+00
   endloop
 endfacet
 facet normal  2.5921359586e-16 1.9373564647e-01 9.8105376982e-01
   outer loop
     vertex 7.1432226234e-01 0.0000000000e+00 2.0000000000e+00
     vertex 1.5547013945e+00 7.6591063793e-01 1.8487501938e+00
     vertex 7.1432226234e-01 7.6591063793e-01 1.8487501938e+00
   endloop
 endfacet
 facet normal  2.1968387368e-16 5.5560796539e-01 8.3144439910e-01
   outer loop
     vertex 7.1432226234e-01 7.6591063793e-01 1.8487501938e+00
     vertex 1.5547013945e+00 7.6591063793e-01 1.8487501938e+00
     vertex 1.5547013945e+00 1.4150002563e+00 1.4149997678e+00
   endloop
 endfacet
 facet normal  1.4680249241e-16 5.5560796539e-01 8.3144439910e-01
   outer loop
     vertex 7.1432226234e-01 7.6591063793e-01 1.8487501938e+00
     vertex 1.5547013945e+00 1.4150002563e+00 1.4149997678e+00
     vertex 7.1432226234e-01 1.4150002563e+00 1.4149997678e+00
   endloop
 endfacet
 facet normal  2.1968392850e-16 8.3144460657e-01 5.5560765492e-01
   outer loop
     vertex 7.1432226234e-01 1.4150002563e+00 1.4149997678e+00
     vertex 1.5547013945e+00 1.4150002563e+00 1.4149997678e+00
     vertex 1.5547013945e+00 1.8487502179e+00 7.6591031964e-01
   endloop
 endfacet
 facet normal  5.1276906219e-16 8.3144460657e-01 5.5560765492e-01
   outer loop
     vertex 7.1432226234e-01 1.4150002563e+00 1.4149997678e+00
     vertex 1.5547013945e+00 1.8487502179e+00 7.6591031964e-01
     vertex 7.1432226234e-01 1.8487502179e+00 7.6591031964e-01
   endloop
 endfacet
 facet normal  5.4402156613e-16 9.8105376456e-01 1.9373567315e-01
   outer loop
     vertex 7.1432226234e-01 1.8487502179e+00 7.6591031964e-01
     vertex 1.5547013945e+00 1.8487502179e+00 7.6591031964e-01
     vertex 1.5547013945e+00 2.0000000000e+00 -8.6410206867e-08
   endloop
 endfacet
 facet normal  5.1842718588e-16 9.8105376456e-01 1.9373567315e-01
   outer loop
     vertex 7.1432226234e-01 1.8487502179e+00 7.6591031964e-01
     vertex 1.5547013945e+00 2.0000000000e+00 -8.6410206867e-08
     vertex 7.1432226234e-01 2.0000000000e+00 -8.6410206867e-08
   endloop
 endfacet
 facet normal  5.1842720392e-16 9.8105378715e-01 -1.9373555871e-01
   outer loop
     vertex 7.1432226234e-01 2.0000000000e+00 -8.6410206867e-08
     vertex 1.5547013945e+00 2.0000000000e+00 -8.6410206867e-08
     vertex 1.5547013945e+00 1.8487503213e+00 -7.6591043885e-01
   endloop
 endfacet
 facet normal  2.8480796252e-16 9.8105378715e-01 -1.9373555871e-01
   outer loop
     vertex 7.1432226234e-01 2.0000000000e+00 -8.6410206867e-08
     vertex 1.5547013945e+00 1.8487503213e+00 -7.6591043885e-01
     vertex 7.1432226234e-01 1.8487503213e+00 -7.6591043885e-01
   endloop
 endfacet
 facet normal  2.9308512206e-16 8.3144443187e-01 -5.5560791635e-01
   outer loop
     vertex 7.1432226234e-01 1.8487503213e+00 -7.6591043885e-01
     vertex 1.5547013945e+00 1.8487503213e+00 -7.6591043885e-01
     vertex 1.5547013945e+00 1.4150000179e+00 -1.4149999568e+00
   endloop
 endfacet
 facet normal  3.6648636179e-16 8.3144443187e-01 -5.5560791635e-01
   outer loop
     vertex 7.1432226234e-01 1.8487503213e+00 -7.6591043885e-01
     vertex 1.5547013945e+00 1.4150000179e+00 -1.4149999568e+00
     vertex 7.1432226234e-01 1.4150000179e+00 -1.4149999568e+00
   endloop
 endfacet
 facet normal  3.6648636201e-16 5.5560791888e-01 -8.3144443018e-01
   outer loop
     vertex 7.1432226234e-01 1.4150000179e+00 -1.4149999568e+00
     vertex 1.5547013945e+00 1.4150000179e+00 -1.4149999568e+00
     vertex 1.5547013945e+00 7.6591085609e-01 -1.8487500251e+00
   endloop
 endfacet
 facet normal  3.6648636201e-16 5.5560791888e-01 -8.3144443018e-01
   outer loop
     vertex 7.1432226234e-01 1.4150000179e+00 -1.4149999568e+00
     vertex 1.5547013945e+00 7.6591085609e-01 -1.8487500251e+00
     vertex 7.1432226234e-01 7.6591085609e-01 -1.8487500251e+00
   endloop
 endfacet
 facet normal  3.1040237605e-16 1.9373580131e-01 -9.8105373925e-01
   outer loop
     vertex 7.1432226234e-01 7.6591085609e-01 -1.8487500251e+00
     vertex 1.5547013945e+00 7.6591085609e-01 -1.8487500251e+00
     vertex 1.5547013945e+00 0.0000000000e+00 -2.0000000000e+00
   endloop
 endfacet
 facet normal  5.1842717555e-16 1.9373580131e-01 -9.8105373925e-01
   outer loop
     vertex 7.1432226234e-01 7.6591085609e-01 -1.8487500251e+00
     vertex 1.5547013945e+00 0.0000000000e+00 -2.0000000000e+00
     vertex 7.1432226234e-01 0.0000000000e+00 -2.0000000000e+00
   endloop
 endfacet
 facet normal  5.1842717555e-16 -1.9373580131e-01 -9.8105373925e-01
   outer loop
     vertex 7.1432226234e-01 0.0000000000e+00 -2.0000000000e+00
     vertex 1.5547013945e+00 0.0000000000e+00 -2.0000000000e+00
     vertex 1.5547013945e+00 -7.6591085609e-01 -1.8487500251e+00
   endloop
 endfacet
 facet normal  3.1040237605e-16 -1.9373580131e-01 -9.8105373925e-01
   outer loop
     vertex 7.1432226234e-01 0.0000000000e+00 -2.0000000000e+00
     vertex 1.5547013945e+00 -7.6591085609e-01 -1.8487500251e+00
     vertex 7.1432226234e-01 -7.6591085609e-01 -1.8487500251e+00
   endloop
 endfacet
 facet normal  3.6648636201e-16 -5.5560791888e-01 -8.3144443018e-01
   outer loop
     vertex 7.1432226234e-01 -7.6591085609e-01 -1.8487500251e+00
     vertex 1.5547013945e+00 -7.6591085609e-01 -1.8487500251e+00
     vertex 1.5547013945e+00 -1.4150000179e+00 -1.4149999568e+00
   endloop
 endfacet
 facet normal  3.6648636201e-16 -5.5560791888e-01 -8.3144443018e-01
   outer loop
     vertex 7.1432226234e-01 -7.6591085609e-01 -1.8487500251e+00
     vertex 1.5547013945e+00 -1.4150000179e+00 -1.4149999568e+00
     vertex 7.1432226234e-01 -1.4150000179e+00 -1.4149999568e+00
   endloop
 endfacet
 facet normal  3.6648636179e-16 -8.3144443187e-01 -5.5560791635e-01
   outer loop
     vertex 7.1432226234e-01 -1.4150000179e+00 -1.4149999568e+00
     vertex 1.5547013945e+00 -1.4150000179e+00 -1.4149999568e+00
     vertex 1.5547013945e+00 -1.8487503213e+00 -7.6591043885e-01
   endloop
 endfacet
 facet normal  2.9308512206e-16 -8.3144443187e-01 -5.5560791635e-01
   outer loop
     vertex 7.1432226234e-01 -1.4150000179e+00 -1.4149999568e+00
     vertex 1.5547013945e+00 -1.8487503213e+00 -7.6591043885e-01
     vertex 7.1432226234e-01 -1.8487503213e+00 -7.6591043885e-01
   endloop
 endfacet
 facet normal  2.8480796252e-16 -9.8105378715e-01 -1.9373555871e-01
   outer loop
     vertex 7.1432226234e-01 -1.8487503213e+00 -7.6591043885e-01
     vertex 1.5547013945e+00 -1.8487503213e+00 -7.6591043885e-01
     vertex 1.5547013945e+00 -2.0000000000e+00 -8.6410206867e-08
   endloop
 endfacet
 facet normal  5.1842720392e-16 -9.8105378715e-01 -1.9373555871e-01
   outer loop
     vertex 7.1432226234e-01 -1.8487503213e+00 -7.6591043885e-01
     vertex 1.5547013945e+00 -2.0000000000e+00 -8.6410206867e-08
     vertex 7.1432226234e-01 -2.0000000000e+00 -8.6410206867e-08
   endloop
 endfacet
 facet normal  5.1842718588e-16 -9.8105376456e-01 1.9373567315e-01
   outer loop
     vertex 7.1432226234e-01 -2.0000000000e+00 -8.6410206867e-08
     vertex 1.5547013945e+00 -2.0000000000e+00 -8.6410206867e-08
     vertex 1.5547013945e+00 -1.8487502179e+00 7.6591031964e-01
   endloop
 endfacet
 facet normal  5.4402156613e-16 -9.8105376456e-01 1.9373567315e-01
   outer loop
     vertex 7.1432226234e-01 -2.0000000000e+00 -8.6410206867e-08
     vertex 1.5547013945e+00 -1.8487502179e+00 7.6591031964e-01
     vertex 7.1432226234e-01 -1.8487502179e+00 7.6591031964e-01
   endloop
 endfacet
 facet normal  5.1276906219e-16 -8.3144460657e-01 5.5560765492e-01
   outer loop
     vertex 7.1432226234e-01 -1.8487502179e+00 7.6591031964e-01
     vertex 1.5547013945e+00 -1.8487502179e+00 7.6591031964e-01
     vertex 1.5547013945e+00 -1.4150002563e+00 1.4149997678e+00
   endloop
 endfacet
 facet normal  2.1968392850e-16 -8.3144460657e-01 5.5560765492e-01
   outer loop
     vertex 7.1432226234e-01 -1.8487502179e+00 7.6591031964e-01
     vertex 1.5547013945e+00 -1.4150002563e+00 1.4149997678e+00
     vertex 7.1432226234e-01 -1.4150002563e+00 1.4149997678e+00
   endloop
 endfacet
 facet normal  1.4680249241e-16 -5.5560796539e-01 8.3144439910e-01
   outer loop
     vertex 7.1432226234e-01 -1.4150002563e+00 1.4149997678e+00
     vertex 1.5547013945e+00 -1.4150002563e+00 1.4149997678e+00
     vertex 1.5547013945e+00 -7.6591063793e-01 1.8487501938e+00
   endloop
 endfacet
 facet normal  2.1968387368e-16 -5.5560796539e-01 8.3144439910e-01
   outer loop
     vertex 7.1432226234e-01 -1.4150002563e+00 1.4149997678e+00
     vertex 1.5547013945e+00 -7.6591063793e-01 1.8487501938e+00
     vertex 7.1432226234e-01 -7.6591063793e-01 1.8487501938e+00
   endloop
 endfacet
 facet normal  2.5921359586e-16 -1.9373564647e-01 9.8105376982e-01
   outer loop
     vertex 7.1432226234e-01 -7.6591063793e-01 1.8487501938e+00
     vertex 1.5547013945e+00 -7.6591063793e-01 1.8487501938e+00
     vertex 1.5547013945e+00 0.0000000000e+00 2.0000000000e+00
   endloop
 endfacet
 facet normal  5.1842719171e-16 -1.9373564647e-01 9.8105376982e-01
   outer loop
     vertex 7.1432226234e-01 -7.6591063793e-01 1.8487501938e+00
     vertex 1.5547013945e+00 0.0000000000e+00 2.0000000000e+00
     vertex 7.1432226234e-01 0.0000000000e+00 2.0000000000e+00
   endloop
 endfacet
 facet normal  0.0000000000e+00 1.9373564647e-01 9.8105376982e-01
   outer loop
     vertex 1.5547013945e+00 0.0000000000e+00 2.0000000000e+00
     vertex 2.2690236568e+00 0.0000000000e+00 2.0000000000e+00
     vertex 2.2690236568e+00 7.6591063793e-01 1.8487501938e+00
   endloop
 endfacet
 facet normal  3.0111027857e-17 1.9373564647e-01 9.8105376982e-01
   outer loop
     vertex 1.5547013945e+00 0.0000000000e+00 2.0000000000e+00
     vertex 2.2690236568e+00 7.6591063793e-01 1.8487501938e+00
     vertex 1.5547013945e+00 7.6591063793e-01 1.8487501938e+00
   endloop
 endfacet
 facet normal  8.6354407299e-17 5.5560796539e-01 8.3144439910e-01
   outer loop
     vertex 1.5547013945e+00 7.6591063793e-01 1.8487501938e+00
     vertex 2.2690236568e+00 7.6591063793e-01 1.8487501938e+00
     vertex 2.2690236568e+00 1.4150002563e+00 1.4149997678e+00
   endloop
 endfacet
 facet normal  1.7270881460e-16 5.5560796539e-01 8.3144439910e-01
   outer loop
     vertex 1.5547013945e+00 7.6591063793e-01 1.8487501938e+00
     vertex 2.2690236568e+00 1.4150002563e+00 1.4149997678e+00
     vertex 1.5547013945e+00 1.4150002563e+00 1.4149997678e+00
   endloop
 endfacet
 facet normal  2.5845168059e-16 8.3144460657e-01 5.5560765492e-01
   outer loop
     vertex 1.5547013945e+00 1.4150002563e+00 1.4149997678e+00
     vertex 2.2690236568e+00 1.4150002563e+00 1.4149997678e+00
     vertex 2.2690236568e+00 1.8487502179e+00 7.6591031964e-01
   endloop
 endfacet
 facet normal  2.5845168059e-16 8.3144460657e-01 5.5560765492e-01
   outer loop
     vertex 1.5547013945e+00 1.4150002563e+00 1.4149997678e+00
     vertex 2.2690236568e+00 1.8487502179e+00 7.6591031964e-01
     vertex 1.5547013945e+00 1.8487502179e+00 7.6591031964e-01
   endloop
 endfacet
 facet normal  3.0495716996e-16 9.8105376456e-01 1.9373567315e-01
   outer loop
     vertex 1.5547013945e+00 1.8487502179e+00 7.6591031964e-01
     vertex 2.2690236568e+00 1.8487502179e+00 7.6591031964e-01
     vertex 2.2690236568e+00 2.0000000000e+00 -8.6410206867e-08
   endloop
 endfacet
 facet normal  0.0000000000e+00 9.8105376456e-01 1.9373567315e-01
   outer loop
     vertex 1.5547013945e+00 1.8487502179e+00 7.6591031964e-01
     vertex 2.2690236568e+00 2.0000000000e+00 -8.6410206867e-08
     vertex 1.5547013945e+00 2.0000000000e+00 -8.6410206867e-08
   endloop
 endfacet
 facet normal  0.0000000000e+00 9.8105378715e-01 -1.9373555871e-01
   outer loop
     vertex 1.5547013945e+00 2.0000000000e+00 -8.6410206867e-08
     vertex 2.2690236568e+00 2.0000000000e+00 -8.6410206867e-08
     vertex 2.2690236568e+00 1.8487503213e+00 -7.6591043885e-01
   endloop
 endfacet
 facet normal  0.0000000000e+00 9.8105378715e-01 -1.9373555871e-01
   outer loop
     vertex 1.5547013945e+00 2.0000000000e+00 -8.6410206867e-08
     vertex 2.2690236568e+00 1.8487503213e+00 -7.6591043885e-01
     vertex 1.5547013945e+00 1.8487503213e+00 -7.6591043885e-01
   endloop
 endfacet
 facet normal  0.0000000000e+00 8.3144443187e-01 -5.5560791635e-01
   outer loop
     vertex 1.5547013945e+00 1.8487503213e+00 -7.6591043885e-01
     vertex 2.2690236568e+00 1.8487503213e+00 -7.6591043885e-01
     vertex 2.2690236568e+00 1.4150000179e+00 -1.4149999568e+00
   endloop
 endfacet
 facet normal  0.0000000000e+00 8.3144443187e-01 -5.5560791635e-01
   outer loop
     vertex 1.5547013945e+00 1.8487503213e+00 -7.6591043885e-01
     vertex 2.2690236568e+00 1.4150000179e+00 -1.4149999568e+00
     vertex 1.5547013945e+00 1.4150000179e+00 -1.4149999568e+00
   endloop
 endfacet
 facet normal  0.0000000000e+00 5.5560791888e-01 -8.3144443018e-01
   outer loop
     vertex 1.5547013945e+00 1.4150000179e+00 -1.4149999568e+00
     vertex 2.2690236568e+00 1.4150000179e+00 -1.4149999568e+00
     vertex 2.2690236568e+00 7.6591085609e-01 -1.8487500251e+00
   endloop
 endfacet
 facet normal  0.0000000000e+00 5.5560791888e-01 -8.3144443018e-01
   outer loop
     vertex 1.5547013945e+00 1.4150000179e+00 -1.4149999568e+00
     vertex 2.2690236568e+00 7.6591085609e-01 -1.8487500251e+00
     vertex 1.5547013945e+00 7.6591085609e-01 -1.8487500251e+00
   endloop
 endfacet
 facet normal  0.0000000000e+00 1.9373580131e-01 -9.8105373925e-01
   outer loop
     vertex 1.5547013945e+00 7.6591085609e-01 -1.8487500251e+00
     vertex 2.2690236568e+00 7.6591085609e-01 -1.8487500251e+00
     vertex 2.2690236568e+00 0.0000000000e+00 -2.0000000000e+00
   endloop
 endfacet
 facet normal  0.0000000000e+00 1.9373580131e-01 -9.8105373925e-01
   outer loop
     vertex 1.5547013945e+00 7.6591085609e-01 -1.8487500251e+00
     vertex 2.2690236568e+00 0.0000000000e+00 -2.0000000000e+00
     vertex 1.5547013945e+00 0.0000000000e+00 -2.0000000000e+00
   endloop
 endfacet
 facet normal  -0.0000000000e+00 -1.9373580131e-01 -9.8105373925e-01
   outer loop
     vertex 1.5547013945e+00 0.0000000000e+00 -2.0000000000e+00
     vertex 2.2690236568e+00 0.0000000000e+00 -2.0000000000e+00
     vertex 2.2690236568e+00 -7.6591085609e-01 -1.8487500251e+00
   endloop
 endfacet
 facet normal  -0.0000000000e+00 -1.9373580131e-01 -9.8105373925e-01
   outer loop
     vertex 1.5547013945e+00 0.0000000000e+00 -2.0000000000e+00
     vertex 2.2690236568e+00 -7.6591085609e-01 -1.8487500251e+00
     vertex 1.5547013945e+00 -7.6591085609e-01 -1.8487500251e+00
   endloop
 endfacet
 facet normal  -0.0000000000e+00 -5.5560791888e-01 -8.3144443018e-01
   outer loop
     vertex 1.5547013945e+00 -7.6591085609e-01 -1.8487500251e+00
     vertex 2.2690236568e+00 -7.6591085609e-01 -1.8487500251e+00
     vertex 2.2690236568e+00 -1.4150000179e+00 -1.4149999568e+00
   endloop
 endfacet
 facet normal  -0.0000000000e+00 -5.5560791888e-01 -8.3144443018e-01
   outer loop
     vertex 1.5547013945e+00 -7.6591085609e-01 -1.8487500251e+00
     vertex 2.2690236568e+00 -1.4150000179e+00 -1.4149999568e+00
     vertex 1.5547013945e+00 -1.4150000179e+00 -1.4149999568e+00
   endloop
 endfacet
 facet normal  -0.0000000000e+00 -8.3144443187e-01 -5.5560791635e-01
   outer loop
     vertex 1.5547013945e+00 -1.4150000179e+00 -1.4149999568e+00
     vertex 2.2690236568e+00 -1.4150000179e+00 -1.4149999568e+00
     vertex 2.2690236568e+00 -1.8487503213e+00 -7.6591043885e-01
   endloop
 endfacet
 facet normal  -0.0000000000e+00 -8.3144443187e-01 -5.5560791635e-01
   outer loop
     vertex 1.5547013945e+00 -1.4150000179e+00 -1.4149999568e+00
     vertex 2.2690236568e+00 -1.8487503213e+00 -7.6591043885e-01
     vertex 1.5547013945e+00 -1.8487503213e+00 -7.6591043885e-01
   endloop
 endfacet
 facet normal  -0.0000000000e+00 -9.8105378715e-01 -1.9373555871e-01
   outer loop
     vertex 1.5547013945e+00 -1.8487503213e+00 -7.6591043885e-01
     vertex 2.2690236568e+00 -1.8487503213e+00 -7.6591043885e-01
     vertex 2.2690236568e+00 -2.0000000000e+00 -8.6410206867e-08
   endloop
 endfacet
 facet normal  -0.0000000000e+00 -9.8105378715e-01 -1.9373555871e-01
   outer loop
     vertex 1.5547013945e+00 -1.8487503213e+00 -7.6591043885e-01
     vertex 2.2690236568e+00 -2.0000000000e+00 -8.6410206867e-08
     vertex 1.5547013945e+00 -2.0000000000e+00 -8.6410206867e-08
   endloop
 endfacet
 facet normal  0.0000000000e+00 -9.8105376456e-01 1.9373567315e-01
   outer loop
     vertex 1.5547013945e+00 -2.0000000000e+00 -8.6410206867e-08
     vertex 2.2690236568e+00 -2.0000000000e+00 -8.6410206867e-08
     vertex 2.2690236568e+00 -1.8487502179e+00 7.6591031964e-01
   endloop
 endfacet
 facet normal  3.0495716996e-16 -9.8105376456e-01 1.9373567315e-01
   outer loop
     vertex 1.5547013945e+00 -2.0000000000e+00 -8.6410206867e-08
     vertex 2.2690236568e+00 -1.8487502179e+00 7.6591031964e-01
     vertex 1.5547013945e+00 -1.8487502179e+00 7.6591031964e-01
   endloop
 endfacet
 facet normal  2.5845168059e-16 -8.3144460657e-01 5.5560765492e-01
   outer loop
     vertex 1.5547013945e+00 -1.8487502179e+00 7.6591031964e-01
     vertex 2.2690236568e+00 -1.8487502179e+00 7.6591031964e-01
     vertex 2.2690236568e+00 -1.4150002563e+00 1.4149997678e+00
   endloop
 endfacet
 facet normal  2.5845168059e-16 -8.3144460657e-01 5.5560765492e-01
   outer loop
     vertex 1.5547013945e+00 -1.8487502179e+00 7.6591031964e-01
     vertex 2.2690236568e+00 -1.4150002563e+00 1.4149997678e+00
     vertex 1.5547013945e+00 -1.4150002563e+00 1.4149997678e+00
   endloop
 endfacet
 facet normal  1.7270881460e-16 -5.5560796539e-01 8.3144439910e-01
   outer loop
     vertex 1.5547013945e+00 -1.4150002563e+00 1.4149997678e+00
     vertex 2.2690236568e+00 -1.4150002563e+00 1.4149997678e+00
     vertex 2.2690236568e+00 -7.6591063793e-01 1.8487501938e+00
   endloop
 endfacet
 facet normal  8.6354407299e-17 -5.5560796539e-01 8.3144439910e-01
   outer loop
     vertex 1.5547013945e+00 -1.4150002563e+00 1.4149997678e+00
     vertex 2.2690236568e+00 -7.6591063793e-01 1.8487501938e+00
     vertex 1.5547013945e+00 -7.6591063793e-01 1.8487501938e+00
   endloop
 endfacet
 facet normal  3.0111027857e-17 -1.9373564647e-01 9.8105376982e-01
   outer loop
     vertex 1.5547013945e+00 -7.6591063793e-01 1.8487501938e+00
     vertex 2.2690236568e+00 -7.6591063793e-01 1.8487501938e+00
     vertex 2.2690236568e+00 0.0000000000e+00 2.0000000000e+00
   endloop
 endfacet
 facet normal  0.0000000000e+00 -1.9373564647e-01 9.8105376982e-01
   outer loop
     vertex 1.5547013945e+00 -7.6591063793e-01 1.8487501938e+00
     vertex 2.2690236568e+00 0.0000000000e+00 2.0000000000e+00
     vertex 1.5547013945e+00 0.0000000000e+00 2.0000000000e+00
   endloop
 endfacet
 facet normal  0.0000000000e+00 1.9373564647e-01 9.8105376982e-01
   outer loop
     vertex 2.2690236568e+00 0.0000000000e+00 2.0000000000e+00
     vertex 3.0650077595e+00 0.0000000000e+00 2.0000000000e+00
     vertex 3.0650077595e+00 7.6591063793e-01 1.8487501938e+00
   endloop
 endfacet
 facet normal  2.7367091380e-16 1.9373564647e-01 9.8105376982e-01
   outer loop
     vertex 2.2690236568e+00 0.0000000000e+00 2.0000000000e+00
     vertex 3.0650077595e+00 7.6591063793e-01 1.8487501938e+00
     vertex 2.2690236568e+00 7.6591063793e-01 1.8487501938e+00
   endloop
 endfacet
 facet normal  2.3193647022e-16 5.5560796539e-01 8.3144439910e-01
   outer loop
     vertex 2.2690236568e+00 7.6591063793e-01 1.8487501938e+00
     vertex 3.0650077595e+00 7.6591063793e-01 1.8487501938e+00
     vertex 3.0650077595e+00 1.4150002563e+00 1.4149997678e+00
   endloop
 endfacet
 facet normal  1.5499021998e-16 5.5560796539e-01 8.3144439910e-01
   outer loop
     vertex 2.2690236568e+00 7.6591063793e-01 1.8487501938e+00
     vertex 3.0650077595e+00 1.4150002563e+00 1.4149997678e+00
     vertex 2.2690236568e+00 1.4150002563e+00 1.4149997678e+00
   endloop
 endfacet
 facet normal  2.3193652810e-16 8.3144460657e-01 5.5560765492e-01
   outer loop
     vertex 2.2690236568e+00 1.4150002563e+00 1.4149997678e+00
     vertex 3.0650077595e+00 1.4150002563e+00 1.4149997678e+00
     vertex 3.0650077595e+00 1.8487502179e+00 7.6591031964e-01
   endloop
 endfacet
 facet normal  0.0000000000e+00 8.3144460657e-01 5.5560765492e-01
   outer loop
     vertex 2.2690236568e+00 1.4150002563e+00 1.4149997678e+00
     vertex 3.0650077595e+00 1.8487502179e+00 7.6591031964e-01
     vertex 2.2690236568e+00 1.8487502179e+00 7.6591031964e-01
   endloop
 endfacet
 facet normal  0.0000000000e+00 9.8105376456e-01 1.9373567315e-01
   outer loop
     vertex 2.2690236568e+00 1.8487502179e+00 7.6591031964e-01
     vertex 3.0650077595e+00 1.8487502179e+00 7.6591031964e-01
     vertex 3.0650077595e+00 2.0000000000e+00 -8.6410206867e-08
   endloop
 endfacet
 facet normal  0.0000000000e+00 9.8105376456e-01 1.9373567315e-01
   outer loop
     vertex 2.2690236568e+00 1.8487502179e+00 7.6591031964e-01
     vertex 3.0650077595e+00 2.0000000000e+00 -8.6410206867e-08
     vertex 2.2690236568e+00 2.0000000000e+00 -8.6410206867e-08
   endloop
 endfacet
 facet normal  0.0000000000e+00 9.8105378715e-01 -1.9373555871e-01
   outer loop
     vertex 2.2690236568e+00 2.0000000000e+00 -8.6410206867e-08
     vertex 3.0650077595e+00 2.0000000000e+00 -8.6410206867e-08
     vertex 3.0650077595e+00 1.8487503213e+00 -7.6591043885e-01
   endloop
 endfacet
 facet normal  0.0000000000e+00 9.8105378715e-01 -1.9373555871e-01
   outer loop
     vertex 2.2690236568e+00 2.0000000000e+00 -8.6410206867e-08
     vertex 3.0650077595e+00 1.8487503213e+00 -7.6591043885e-01
     vertex 2.2690236568e+00 1.8487503213e+00 -7.6591043885e-01
   endloop
 endfacet
 facet normal  0.0000000000e+00 8.3144443187e-01 -5.5560791635e-01
   outer loop
     vertex 2.2690236568e+00 1.8487503213e+00 -7.6591043885e-01
     vertex 3.0650077595e+00 1.8487503213e+00 -7.6591043885e-01
     vertex 3.0650077595e+00 1.4150000179e+00 -1.4149999568e+00
   endloop
 endfacet
 facet normal  -3.8692668567e-16 8.3144443187e-01 -5.5560791635e-01
   outer loop
     vertex 2.2690236568e+00 1.8487503213e+00 -7.6591043885e-01
     vertex 3.0650077595e+00 1.4150000179e+00 -1.4149999568e+00
     vertex 2.2690236568e+00 1.4150000179e+00 -1.4149999568e+00
   endloop
 endfacet
 facet normal  -3.8692668590e-16 5.5560791888e-01 -8.3144443018e-01
   outer loop
     vertex 2.2690236568e+00 1.4150000179e+00 -1.4149999568e+00
     vertex 3.0650077595e+00 1.4150000179e+00 -1.4149999568e+00
     vertex 3.0650077595e+00 7.6591085609e-01 -1.8487500251e+00
   endloop
 endfacet
 facet normal  0.0000000000e+00 5.5560791888e-01 -8.3144443018e-01
   outer loop
     vertex 2.2690236568e+00 1.4150000179e+00 -1.4149999568e+00
     vertex 3.0650077595e+00 7.6591085609e-01 -1.8487500251e+00
     vertex 2.2690236568e+00 7.6591085609e-01 -1.8487500251e+00
   endloop
 endfacet
 facet normal  0.0000000000e+00 1.9373580131e-01 -9.8105373925e-01
   outer loop
     vertex 2.2690236568e+00 7.6591085609e-01 -1.8487500251e+00
     vertex 3.0650077595e+00 7.6591085609e-01 -1.8487500251e+00
     vertex 3.0650077595e+00 0.0000000000e+00 -2.0000000000e+00
   endloop
 endfacet
 facet normal  0.0000000000e+00 1.9373580131e-01 -9.8105373925e-01
   outer loop
     vertex 2.2690236568e+00 7.6591085609e-01 -1.8487500251e+00
     vertex 3.0650077595e+00 0.0000000000e+00 -2.0000000000e+00
     vertex 2.2690236568e+00 0.0000000000e+00 -2.0000000000e+00
   endloop
 endfacet
 facet normal  -0.0000000000e+00 -1.9373580131e-01 -9.8105373925e-01
   outer loop
     vertex 2.2690236568e+00 0.0000000000e+00 -2.0000000000e+00
     vertex 3.0650077595e+00 0.0000000000e+00 -2.0000000000e+00
     vertex 3.0650077595e+00 -7.6591085609e-01 -1.8487500251e+00
   endloop
 endfacet
 facet normal  -0.0000000000e+00 -1.9373580131e-01 -9.8105373925e-01
   outer loop
     vertex 2.2690236568e+00 0.0000000000e+00 -2.0000000000e+00
     vertex 3.0650077595e+00 -7.6591085609e-01 -1.8487500251e+00
     vertex 2.2690236568e+00 -7.6591085609e-01 -1.8487500251e+00
   endloop
 endfacet
 facet normal  -0.0000000000e+00 -5.5560791888e-01 -8.3144443018e-01
   outer loop
     vertex 2.2690236568e+00 -7.6591085609e-01 -1.8487500251e+00
     vertex 3.0650077595e+00 -7.6591085609e-01 -1.8487500251e+00
     vertex 3.0650077595e+00 -1.4150000179e+00 -1.4149999568e+00
   endloop
 endfacet
 facet normal  -3.8692668590e-16 -5.5560791888e-01 -8.3144443018e-01
   outer loop
     vertex 2.2690236568e+00 -7.6591085609e-01 -1.8487500251e+00
     vertex 3.0650077595e+00 -1.4150000179e+00 -1.4149999568e+00
     vertex 2.2690236568e+00 -1.4150000179e+00 -1.4149999568e+00
   endloop
 endfacet
 facet normal  -3.8692668567e-16 -8.3144443187e-01 -5.5560791635e-01
   outer loop
     vertex 2.2690236568e+00 -1.4150000179e+00 -1.4149999568e+00
     vertex 3.0650077595e+00 -1.4150000179e+00 -1.4149999568e+00
     vertex 3.0650077595e+00 -1.8487503213e+00 -7.6591043885e-01
   endloop
 endfacet
 facet normal  -0.0000000000e+00 -8.3144443187e-01 -5.5560791635e-01
   outer loop
     vertex 2.2690236568e+00 -1.4150000179e+00 -1.4149999568e+00
     vertex 3.0650077595e+00 -1.8487503213e+00 -7.6591043885e-01
     vertex 2.2690236568e+00 -1.8487503213e+00 -7.6591043885e-01
   endloop
 endfacet
 facet normal  -0.0000000000e+00 -9.8105378715e-01 -1.9373555871e-01
   outer loop
     vertex 2.2690236568e+00 -1.8487503213e+00 -7.6591043885e-01
     vertex 3.0650077595e+00 -1.8487503213e+00 -7.6591043885e-01
     vertex 3.0650077595e+00 -2.0000000000e+00 -8.6410206867e-08
   endloop
 endfacet
 facet normal  -0.0000000000e+00 -9.8105378715e-01 -1.9373555871e-01
   outer loop
     vertex 2.2690236568e+00 -1.8487503213e+00 -7.6591043885e-01
     vertex 3.0650077595e+00 -2.0000000000e+00 -8.6410206867e-08
     vertex 2.2690236568e+00 -2.0000000000e+00 -8.6410206867e-08
   endloop
 endfacet
 facet normal  0.0000000000e+00 -9.8105376456e-01 1.9373567315e-01
   outer loop
     vertex 2.2690236568e+00 -2.0000000000e+00 -8.6410206867e-08
     vertex 3.0650077595e+00 -2.0000000000e+00 -8.6410206867e-08
     vertex 3.0650077595e+00 -1.8487502179e+00 7.6591031964e-01
   endloop
 endfacet
 facet normal  0.0000000000e+00 -9.8105376456e-01 1.9373567315e-01
   outer loop
     vertex 2.2690236568e+00 -2.0000000000e+00 -8.6410206867e-08
     vertex 3.0650077595e+00 -1.8487502179e+00 7.6591031964e-01
     vertex 2.2690236568e+00 -1.8487502179e+00 7.6591031964e-01
   endloop
 endfacet
 facet normal  0.0000000000e+00 -8.3144460657e-01 5.5560765492e-01
   outer loop
     vertex 2.2690236568e+00 -1.8487502179e+00 7.6591031964e-01
     vertex 3.0650077595e+00 -1.8487502179e+00 7.6591031964e-01
     vertex 3.0650077595e+00 -1.4150002563e+00 1.4149997678e+00
   endloop
 endfacet
 facet normal  2.3193652810e-16 -8.3144460657e-01 5.5560765492e-01
   outer loop
     vertex 2.2690236568e+00 -1.8487502179e+00 7.6591031964e-01
     vertex 3.0650077595e+00 -1.4150002563e+00 1.4149997678e+00
     vertex 2.2690236568e+00 -1.4150002563e+00 1.4149997678e+00
   endloop
 endfacet
 facet normal  1.5499021998e-16 -5.5560796539e-01 8.3144439910e-01
   outer loop
     vertex 2.2690236568e+00 -1.4150002563e+00 1.4149997678e+00
     vertex 3.0650077595e+00 -1.4150002563e+00 1.4149997678e+00
     vertex 3.0650077595e+00 -7.6591063793e-01 1.8487501938e+00
   endloop
 endfacet
 facet normal  2.3193647022e-16 -5.5560796539e-01 8.3144439910e-01
   outer loop
     vertex 2.2690236568e+00 -1.4150002563e+00 1.4149997678e+00
     vertex 3.0650077595e+00 -7.6591063793e-01 1.8487501938e+00
     vertex 2.2690236568e+00 -7.6591063793e-01 1.8487501938e+00
   endloop
 endfacet
 facet normal  2.7367091380e-16 -1.9373564647e-01 9.8105376982e-01
   outer loop
     vertex 2.2690236568e+00 -7.6591063793e-01 1.8487501938e+00
     vertex 3.0650077595e+00 -7.6591063793e-01 1.8487501938e+00
     vertex 3.0650077595e+00 0.0000000000e+00 2.0000000000e+00
   endloop
 endfacet
 facet normal  0.0000000000e+00 -1.9373564647e-01 9.8105376982e-01
   outer loop
     vertex 2.2690236568e+00 -7.6591063793e-01 1.8487501938e+00
     vertex 3.0650077595e+00 0.0000000000e+00 2.0000000000e+00
     vertex 2.2690236568e+00 0.0000000000e+00 2.0000000000e+00
   endloop
 endfacet
 facet normal  0.0000000000e+00 1.9373564647e-01 9.8105376982e-01
   outer loop
     vertex 3.0650077595e+00 0.0000000000e+00 2.0000000000e+00
     vertex 4.0014596449e+00 0.0000000000e+00 2.0000000000e+00
     vertex 4.0014596449e+00 7.6591063793e-01 1.8487501938e+00
   endloop
 endfacet
 facet normal  -2.3262027673e-16 1.9373564647e-01 9.8105376982e-01
   outer loop
     vertex 3.0650077595e+00 0.0000000000e+00 2.0000000000e+00
     vertex 4.0014596449e+00 7.6591063793e-01 1.8487501938e+00
     vertex 3.0650077595e+00 7.6591063793e-01 1.8487501938e+00
   endloop
 endfacet
 facet normal  -1.9714599969e-16 5.5560796539e-01 8.3144439910e-01
   outer loop
     vertex 3.0650077595e+00 7.6591063793e-01 1.8487501938e+00
     vertex 4.0014596449e+00 7.6591063793e-01 1.8487501938e+00
     vertex 4.0014596449e+00 1.4150002563e+00 1.4149997678e+00
   endloop
 endfacet
 facet normal  -2.6348337397e-16 5.5560796539e-01 8.3144439910e-01
   outer loop
     vertex 3.0650077595e+00 7.6591063793e-01 1.8487501938e+00
     vertex 4.0014596449e+00 1.4150002563e+00 1.4149997678e+00
     vertex 3.0650077595e+00 1.4150002563e+00 1.4149997678e+00
   endloop
 endfacet
 facet normal  -3.9429209777e-16 8.3144460657e-01 5.5560765492e-01
   outer loop
     vertex 3.0650077595e+00 1.4150002563e+00 1.4149997678e+00
     vertex 4.0014596449e+00 1.4150002563e+00 1.4149997678e+00
     vertex 4.0014596449e+00 1.8487502179e+00 7.6591031964e-01
   endloop
 endfacet
 facet normal  -6.5870806685e-17 8.3144460657e-01 5.5560765492e-01
   outer loop
     vertex 3.0650077595e+00 1.4150002563e+00 1.4149997678e+00
     vertex 4.0014596449e+00 1.8487502179e+00 7.6591031964e-01
     vertex 3.0650077595e+00 1.8487502179e+00 7.6591031964e-01
   endloop
 endfacet
 facet normal  -2.2968591165e-17 9.8105376456e-01 1.9373567315e-01
   outer loop
     vertex 3.0650077595e+00 1.8487502179e+00 7.6591031964e-01
     vertex 4.0014596449e+00 1.8487502179e+00 7.6591031964e-01
     vertex 4.0014596449e+00 2.0000000000e+00 -8.6410206867e-08
   endloop
 endfacet
 facet normal  2.7380694348e-24 9.8105376456e-01 1.9373567315e-01
   outer loop
     vertex 3.0650077595e+00 1.8487502179e+00 7.6591031964e-01
     vertex 4.0014596449e+00 2.0000000000e+00 -8.6410206867e-08
     vertex 3.0650077595e+00 2.0000000000e+00 -8.6410206867e-08
   endloop
 endfacet
 facet normal  -2.7380678174e-24 9.8105378715e-01 -1.9373555871e-01
   outer loop
     vertex 3.0650077595e+00 2.0000000000e+00 -8.6410206867e-08
     vertex 4.0014596449e+00 2.0000000000e+00 -8.6410206867e-08
     vertex 4.0014596449e+00 1.8487503213e+00 -7.6591043885e-01
   endloop
 endfacet
 facet normal  0.0000000000e+00 9.8105378715e-01 -1.9373555871e-01
   outer loop
     vertex 3.0650077595e+00 2.0000000000e+00 -8.6410206867e-08
     vertex 4.0014596449e+00 1.8487503213e+00 -7.6591043885e-01
     vertex 3.0650077595e+00 1.8487503213e+00 -7.6591043885e-01
   endloop
 endfacet
 facet normal  0.0000000000e+00 8.3144443187e-01 -5.5560791635e-01
   outer loop
     vertex 3.0650077595e+00 1.8487503213e+00 -7.6591043885e-01
     vertex 4.0014596449e+00 1.8487503213e+00 -7.6591043885e-01
     vertex 4.0014596449e+00 1.4150000179e+00 -1.4149999568e+00
   endloop
 endfacet
 facet normal  3.2888768282e-16 8.3144443187e-01 -5.5560791635e-01
   outer loop
     vertex 3.0650077595e+00 1.8487503213e+00 -7.6591043885e-01
     vertex 4.0014596449e+00 1.4150000179e+00 -1.4149999568e+00
     vertex 3.0650077595e+00 1.4150000179e+00 -1.4149999568e+00
   endloop
 endfacet
 facet normal  3.2888768302e-16 5.5560791888e-01 -8.3144443018e-01
   outer loop
     vertex 3.0650077595e+00 1.4150000179e+00 -1.4149999568e+00
     vertex 4.0014596449e+00 1.4150000179e+00 -1.4149999568e+00
     vertex 4.0014596449e+00 7.6591085609e-01 -1.8487500251e+00
   endloop
 endfacet
 facet normal  -6.5870837979e-17 5.5560791888e-01 -8.3144443018e-01
   outer loop
     vertex 3.0650077595e+00 1.4150000179e+00 -1.4149999568e+00
     vertex 4.0014596449e+00 7.6591085609e-01 -1.8487500251e+00
     vertex 3.0650077595e+00 7.6591085609e-01 -1.8487500251e+00
   endloop
 endfacet
 facet normal  -2.2968606360e-17 1.9373580131e-01 -9.8105373925e-01
   outer loop
     vertex 3.0650077595e+00 7.6591085609e-01 -1.8487500251e+00
     vertex 4.0014596449e+00 7.6591085609e-01 -1.8487500251e+00
     vertex 4.0014596449e+00 0.0000000000e+00 -2.0000000000e+00
   endloop
 endfacet
 facet normal  0.0000000000e+00 1.9373580131e-01 -9.8105373925e-01
   outer loop
     vertex 3.0650077595e+00 7.6591085609e-01 -1.8487500251e+00
     vertex 4.0014596449e+00 0.0000000000e+00 -2.0000000000e+00
     vertex 3.0650077595e+00 0.0000000000e+00 -2.0000000000e+00
   endloop
 endfacet
 facet normal  -0.0000000000e+00 -1.9373580131e-01 -9.8105373925e-01
   outer loop
     vertex 3.0650077595e+00 0.0000000000e+00 -2.0000000000e+00
     vertex 4.0014596449e+00 0.0000000000e+00 -2.0000000000e+00
     vertex 4.0014596449e+00 -7.6591085609e-01 -1.8487500251e+00
   endloop
 endfacet
 facet normal  -2.2968606360e-17 -1.9373580131e-01 -9.8105373925e-01
   outer loop
     vertex 3.0650077595e+00 0.0000000000e+00 -2.0000000000e+00
     vertex 4.0014596449e+00 -7.6591085609e-01 -1.8487500251e+00
     vertex 3.0650077595e+00 -7.6591085609e-01 -1.8487500251e+00
   endloop
 endfacet
 facet normal  -6.5870837979e-17 -5.5560791888e-01 -8.3144443018e-01
   outer loop
     vertex 3.0650077595e+00 -7.6591085609e-01 -1.8487500251e+00
     vertex 4.0014596449e+00 -7.6591085609e-01 -1.8487500251e+00
     vertex 4.0014596449e+00 -1.4150000179e+00 -1.4149999568e+00
   endloop
 endfacet
 facet normal  3.2888768302e-16 -5.5560791888e-01 -8.3144443018e-01
   outer loop
     vertex 3.0650077595e+00 -7.6591085609e-01 -1.8487500251e+00
     vertex 4.0014596449e+00 -1.4150000179e+00 -1.4149999568e+00
     vertex 3.0650077595e+00 -1.4150000179e+00 -1.4149999568e+00
   endloop
 endfacet
 facet normal  3.2888768282e-16 -8.3144443187e-01 -5.5560791635e-01
   outer loop
     vertex 3.0650077595e+00 -1.4150000179e+00 -1.4149999568e+00
     vertex 4.0014596449e+00 -1.4150000179e+00 -1.4149999568e+00
     vertex 4.0014596449e+00 -1.8487503213e+00 -7.6591043885e-01
   endloop
 endfacet
 facet normal  -0.0000000000e+00 -8.3144443187e-01 -5.5560791635e-01
   outer loop
     vertex 3.0650077595e+00 -1.4150000179e+00 -1.4149999568e+00
     vertex 4.0014596449e+00 -1.8487503213e+00 -7.6591043885e-01
     vertex 3.0650077595e+00 -1.8487503213e+00 -7.6591043885e-01
   endloop
 endfacet
 facet normal  -0.0000000000e+00 -9.8105378715e-01 -1.9373555871e-01
   outer loop
     vertex 3.0650077595e+00 -1.8487503213e+00 -7.6591043885e-01
     vertex 4.0014596449e+00 -1.8487503213e+00 -7.6591043885e-01
     vertex 4.0014596449e+00 -2.0000000000e+00 -8.6410206867e-08
   endloop
 endfacet
 facet normal  -2.7380678174e-24 -9.8105378715e-01 -1.9373555871e-01
   outer loop
     vertex 3.0650077595e+00 -1.8487503213e+00 -7.6591043885e-01
     vertex 4.0014596449e+00 -2.0000000000e+00 -8.6410206867e-08
     vertex 3.0650077595e+00 -2.0000000000e+00 -8.6410206867e-08
   endloop
 endfacet
 facet normal  2.7380694348e-24 -9.8105376456e-01 1.9373567315e-01
   outer loop
     vertex 3.0650077595e+00 -2.0000000000e+00 -8.6410206867e-08
     vertex 4.0014596449e+00 -2.0000000000e+00 -8.6410206867e-08
     vertex 4.0014596449e+00 -1.8487502179e+00 7.6591031964e-01
   endloop
 endfacet
 facet normal  -2.2968591165e-17 -9.8105376456e-01 1.9373567315e-01
   outer loop
     vertex 3.0650077595e+00 -2.0000000000e+00 -8.6410206867e-08
     vertex 4.0014596449e+00 -1.8487502179e+00 7.6591031964e-01
     vertex 3.0650077595e+00 -1.8487502179e+00 7.6591031964e-01
   endloop
 endfacet
 facet normal  -6.5870806685e-17 -8.3144460657e-01 5.5560765492e-01
   outer loop
     vertex 3.0650077595e+00 -1.8487502179e+00 7.6591031964e-01
     vertex 4.0014596449e+00 -1.8487502179e+00 7.6591031964e-01
     vertex 4.0014596449e+00 -1.4150002563e+00 1.4149997678e+00
   endloop
 endfacet
 facet normal  -3.9429209777e-16 -8.3144460657e-01 5.5560765492e-01
   outer loop
     vertex 3.0650077595e+00 -1.8487502179e+00 7.6591031964e-01
     vertex 4.0014596449e+00 -1.4150002563e+00 1.4149997678e+00
     vertex 3.0650077595e+00 -1.4150002563e+00 1.4149997678e+00
   endloop
 endfacet
 facet normal  -2.6348337397e-16 -5.5560796539e-01 8.3144439910e-01
   outer loop
     vertex 3.0650077595e+00 -1.4150002563e+00 1.4149997678e+00
     vertex 4.0014596449e+00 -1.4150002563e+00 1.4149997678e+00
     vertex 4.0014596449e+00 -7.6591063793e-01 1.8487501938e+00
   endloop
 endfacet
 facet normal  -1.9714599969e-16 -5.5560796539e-01 8.3144439910e-01
   outer loop
     vertex 3.0650077595e+00 -1.4150002563e+00 1.4149997678e+00
     vertex 4.0014596449e+00 -7.6591063793e-01 1.8487501938e+00
     vertex 3.0650077595e+00 -7.6591063793e-01 1.8487501938e+00
   endloop
 endfacet
 facet normal  -2.3262027673e-16 -1.9373564647e-01 9.8105376982e-01
   outer loop
     vertex 3.0650077595e+00 -7.6591063793e-01 1.8487501938e+00
     vertex 4.0014596449e+00 -7.6591063793e-01 1.8487501938e+00
     vertex 4.0014596449e+00 0.0000000000e+00 2.0000000000e+00
   endloop
 endfacet
 facet normal  0.0000000000e+00 -1.9373564647e-01 9.8105376982e-01
   outer loop
     vertex 3.0650077595e+00 -7.6591063793e-01 1.8487501938e+00
     vertex 4.0014596449e+00 0.0000000000e+00 2.0000000000e+00
     vertex 3.0650077595e+00 0.0000000000e+00 2.0000000000e+00
   endloop
 endfacet
 facet normal  0.0000000000e+00 1.9373564647e-01 9.8105376982e-01
   outer loop
     vertex 4.0014596449e+00 0.0000000000e+00 2.0000000000e+00
     vertex 4.7974437475e+00 0.0000000000e+00 2.0000000000e+00
     vertex 4.7974437475e+00 7.6591063793e-01 1.8487501938e+00
   endloop
 endfacet
 facet normal  0.0000000000e+00 1.9373564647e-01 9.8105376982e-01
   outer loop
     vertex 4.0014596449e+00 0.0000000000e+00 2.0000000000e+00
     vertex 4.7974437475e+00 7.6591063793e-01 1.8487501938e+00
     vertex 4.0014596449e+00 7.6591063793e-01 1.8487501938e+00
   endloop
 endfacet
 facet normal  0.0000000000e+00 5.5560796539e-01 8.3144439910e-01
   outer loop
     vertex 4.0014596449e+00 7.6591063793e-01 1.8487501938e+00
     vertex 4.7974437475e+00 7.6591063793e-01 1.8487501938e+00
     vertex 4.7974437475e+00 1.4150002563e+00 1.4149997678e+00
   endloop
 endfacet
 facet normal  1.5499021998e-16 5.5560796539e-01 8.3144439910e-01
   outer loop
     vertex 4.0014596449e+00 7.6591063793e-01 1.8487501938e+00
     vertex 4.7974437475e+00 1.4150002563e+00 1.4149997678e+00
     vertex 4.0014596449e+00 1.4150002563e+00 1.4149997678e+00
   endloop
 endfacet
 facet normal  2.3193652810e-16 8.3144460657e-01 5.5560765492e-01
   outer loop
     vertex 4.0014596449e+00 1.4150002563e+00 1.4149997678e+00
     vertex 4.7974437475e+00 1.4150002563e+00 1.4149997678e+00
     vertex 4.7974437475e+00 1.8487502179e+00 7.6591031964e-01
   endloop
 endfacet
 facet normal  7.7495066688e-17 8.3144460657e-01 5.5560765492e-01
   outer loop
     vertex 4.0014596449e+00 1.4150002563e+00 1.4149997678e+00
     vertex 4.7974437475e+00 1.8487502179e+00 7.6591031964e-01
     vertex 4.0014596449e+00 1.8487502179e+00 7.6591031964e-01
   endloop
 endfacet
 facet normal  2.7021871959e-17 9.8105376456e-01 1.9373567315e-01
   outer loop
     vertex 4.0014596449e+00 1.8487502179e+00 7.6591031964e-01
     vertex 4.7974437475e+00 1.8487502179e+00 7.6591031964e-01
     vertex 4.7974437475e+00 2.0000000000e+00 -8.6410206867e-08
   endloop
 endfacet
 facet normal  -3.2212581585e-24 9.8105376456e-01 1.9373567315e-01
   outer loop
     vertex 4.0014596449e+00 1.8487502179e+00 7.6591031964e-01
     vertex 4.7974437475e+00 2.0000000000e+00 -8.6410206867e-08
     vertex 4.0014596449e+00 2.0000000000e+00 -8.6410206867e-08
   endloop
 endfacet
 facet normal  3.2212562558e-24 9.8105378715e-01 -1.9373555871e-01
   outer loop
     vertex 4.0014596449e+00 2.0000000000e+00 -8.6410206867e-08
     vertex 4.7974437475e+00 2.0000000000e+00 -8.6410206867e-08
     vertex 4.7974437475e+00 1.8487503213e+00 -7.6591043885e-01
   endloop
 endfacet
 facet normal  0.0000000000e+00 9.8105378715e-01 -1.9373555871e-01
   outer loop
     vertex 4.0014596449e+00 2.0000000000e+00 -8.6410206867e-08
     vertex 4.7974437475e+00 1.8487503213e+00 -7.6591043885e-01
     vertex 4.0014596449e+00 1.8487503213e+00 -7.6591043885e-01
   endloop
 endfacet
 facet normal  0.0000000000e+00 8.3144443187e-01 -5.5560791635e-01
   outer loop
     vertex 4.0014596449e+00 1.8487503213e+00 -7.6591043885e-01
     vertex 4.7974437475e+00 1.8487503213e+00 -7.6591043885e-01
     vertex 4.7974437475e+00 1.4150000179e+00 -1.4149999568e+00
   endloop
 endfacet
 facet normal  0.0000000000e+00 8.3144443187e-01 -5.5560791635e-01
   outer loop
     vertex 4.0014596449e+00 1.8487503213e+00 -7.6591043885e-01
     vertex 4.7974437475e+00 1.4150000179e+00 -1.4149999568e+00
     vertex 4.0014596449e+00 1.4150000179e+00 -1.4149999568e+00
   endloop
 endfacet
 facet normal  0.0000000000e+00 5.5560791888e-01 -8.3144443018e-01
   outer loop
     vertex 4.0014596449e+00 1.4150000179e+00 -1.4149999568e+00
     vertex 4.7974437475e+00 1.4150000179e+00 -1.4149999568e+00
     vertex 4.7974437475e+00 7.6591085609e-01 -1.8487500251e+00
   endloop
 endfacet
 facet normal  7.7495103505e-17 5.5560791888e-01 -8.3144443018e-01
   outer loop
     vertex 4.0014596449e+00 1.4150000179e+00 -1.4149999568e+00
     vertex 4.7974437475e+00 7.6591085609e-01 -1.8487500251e+00
     vertex 4.0014596449e+00 7.6591085609e-01 -1.8487500251e+00
   endloop
 endfacet
 facet normal  2.7021889835e-17 1.9373580131e-01 -9.8105373925e-01
   outer loop
     vertex 4.0014596449e+00 7.6591085609e-01 -1.8487500251e+00
     vertex 4.7974437475e+00 7.6591085609e-01 -1.8487500251e+00
     vertex 4.7974437475e+00 0.0000000000e+00 -2.0000000000e+00
   endloop
 endfacet
 facet normal  0.0000000000e+00 1.9373580131e-01 -9.8105373925e-01
   outer loop
     vertex 4.0014596449e+00 7.6591085609e-01 -1.8487500251e+00
     vertex 4.7974437475e+00 0.0000000000e+00 -2.0000000000e+00
     vertex 4.0014596449e+00 0.0000000000e+00 -2.0000000000e+00
   endloop
 endfacet
 facet normal  -0.0000000000e+00 -1.9373580131e-01 -9.8105373925e-01
   outer loop
     vertex 4.0014596449e+00 0.0000000000e+00 -2.0000000000e+00
     vertex 4.7974437475e+00 0.0000000000e+00 -2.0000000000e+00
     vertex 4.7974437475e+00 -7.6591085609e-01 -1.8487500251e+00
   endloop
 endfacet
 facet normal  2.7021889835e-17 -1.9373580131e-01 -9.8105373925e-01
   outer loop
     vertex 4.0014596449e+00 0.0000000000e+00 -2.0000000000e+00
     vertex 4.7974437475e+00 -7.6591085609e-01 -1.8487500251e+00
     vertex 4.0014596449e+00 -7.6591085609e-01 -1.8487500251e+00
   endloop
 endfacet
 facet normal  7.7495103505e-17 -5.5560791888e-01 -8.3144443018e-01
   outer loop
     vertex 4.0014596449e+00 -7.6591085609e-01 -1.8487500251e+00
     vertex 4.7974437475e+00 -7.6591085609e-01 -1.8487500251e+00
     vertex 4.7974437475e+00 -1.4150000179e+00 -1.4149999568e+00
   endloop
 endfacet
 facet normal  -0.0000000000e+00 -5.5560791888e-01 -8.3144443018e-01
   outer loop
     vertex 4.0014596449e+00 -7.6591085609e-01 -1.8487500251e+00
     vertex 4.7974437475e+00 -1.4150000179e+00 -1.4149999568e+00
     vertex 4.0014596449e+00 -1.4150000179e+00 -1.4149999568e+00
   endloop
 endfacet
 facet normal  -0.0000000000e+00 -8.3144443187e-01 -5.5560791635e-01
   outer loop
     vertex 4.0014596449e+00 -1.4150000179e+00 -1.4149999568e+00
     vertex 4.7974437475e+00 -1.4150000179e+00 -1.4149999568e+00
     vertex 4.7974437475e+00 -1.8487503213e+00 -7.6591043885e-01
   endloop
 endfacet
 facet normal  -0.0000000000e+00 -8.3144443187e-01 -5.5560791635e-01
   outer loop
     vertex 4.0014596449e+00 -1.4150000179e+00 -1.4149999568e+00
     vertex 4.7974437475e+00 -1.8487503213e+00 -7.6591043885e-01
     vertex 4.0014596449e+00 -1.8487503213e+00 -7.6591043885e-01
   endloop
 endfacet
 facet normal  -0.0000000000e+00 -9.8105378715e-01 -1.9373555871e-01
   outer loop
     vertex 4.0014596449e+00 -1.8487503213e+00 -7.6591043885e-01
     vertex 4.7974437475e+00 -1.8487503213e+00 -7.6591043885e-01
     vertex 4.7974437475e+00 -2.0000000000e+00 -8.6410206867e-08
   endloop
 endfacet
 facet normal  3.2212562558e-24 -9.8105378715e-01 -1.9373555871e-01
   outer loop
     vertex 4.0014596449e+00 -1.8487503213e+00 -7.6591043885e-01
     vertex 4.7974437475e+00 -2.0000000000e+00 -8.6410206867e-08
     vertex 4.0014596449e+00 -2.0000000000e+00 -8.6410206867e-08
   endloop
 endfacet
 facet normal  -3.2212581585e-24 -9.8105376456e-01 1.9373567315e-01
   outer loop
     vertex 4.0014596449e+00 -2.0000000000e+00 -8.6410206867e-08
     vertex 4.7974437475e+00 -2.0000000000e+00 -8.6410206867e-08
     vertex 4.7974437475e+00 -1.8487502179e+00 7.6591031964e-01
   endloop
 endfacet
 facet normal  2.7021871959e-17 -9.8105376456e-01 1.9373567315e-01
   outer loop
     vertex 4.0014596449e+00 -2.0000000000e+00 -8.6410206867e-08
     vertex 4.7974437475e+00 -1.8487502179e+00 7.6591031964e-01
     vertex 4.0014596449e+00 -1.8487502179e+00 7.6591031964e-01
   endloop
 endfacet
 facet normal  7.7495066688e-17 -8.3144460657e-01 5.5560765492e-01
   outer loop
     vertex 4.0014596449e+00 -1.8487502179e+00 7.6591031964e-01
     vertex 4.7974437475e+00 -1.8487502179e+00 7.6591031964e-01
     vertex 4.7974437475e+00 -1.4150002563e+00 1.4149997678e+00
   endloop
 endfacet
 facet normal  2.3193652810e-16 -8.3144460657e-01 5.5560765492e-01
   outer loop
     vertex 4.0014596449e+00 -1.8487502179e+00 7.6591031964e-01
     vertex 4.7974437475e+00 -1.4150002563e+00 1.4149997678e+00
     vertex 4.0014596449e+00 -1.4150002563e+00 1.4149997678e+00
   endloop
 endfacet
 facet normal  1.5499021998e-16 -5.5560796539e-01 8.3144439910e-01
   outer loop
     vertex 4.0014596449e+00 -1.4150002563e+00 1.4149997678e+00
     vertex 4.7974437475e+00 -1.4150002563e+00 1.4149997678e+00
     vertex 4.7974437475e+00 -7.6591063793e-01 1.8487501938e+00
   endloop
 endfacet
 facet normal  0.0000000000e+00 -5.5560796539e-01 8.3144439910e-01
   outer loop
     vertex 4.0014596449e+00 -1.4150002563e+00 1.4149997678e+00
     vertex 4.7974437475e+00 -7.6591063793e-01 1.8487501938e+00
     vertex 4.0014596449e+00 -7.6591063793e-01 1.8487501938e+00
   endloop
 endfacet
 facet normal  0.0000000000e+00 -1.9373564647e-01 9.8105376982e-01
   outer loop
     vertex 4.0014596449e+00 -7.6591063793e-01 1.8487501938e+00
     vertex 4.7974437475e+00 -7.6591063793e-01 1.8487501938e+00
     vertex 4.7974437475e+00 0.0000000000e+00 2.0000000000e+00
   endloop
 endfacet
 facet normal  0.0000000000e+00 -1.9373564647e-01 9.8105376982e-01
   outer loop
     vertex 4.0014596449e+00 -7.6591063793e-01 1.8487501938e+00
     vertex 4.7974437475e+00 0.0000000000e+00 2.0000000000e+00
     vertex 4.0014596449e+00 0.0000000000e+00 2.0000000000e+00
   endloop
 endfacet
endsolid
