solid
 facet normal  -2.1331226970e-16 1.9373555902e-01 9.8105378709e-01
   outer loop
     vertex 0.0000000000e+00 0.0000000000e+00 1.5000000000e+00
     vertex 1.0212150519e+00 0.0000000000e+00 1.5000000000e+00
     vertex 1.0212150519e+00 5.7443288904e-01 1.3865627162e+00
   endloop
 endfacet
 facet normal  -4.2124267151e-17 1.9373555902e-01 9.8105378709e-01
   outer loop
     vertex 0.0000000000e+00 0.0000000000e+00 1.5000000000e+00
     vertex 1.0212150519e+00 5.7443288904e-01 1.3865627162e+00
     vertex 0.0000000000e+00 5.7443288904e-01 1.3865627162e+00
   endloop
 endfacet
 facet normal  -1.2080682520e-16 5.5560795228e-01 8.3144440786e-01
   outer loop
     vertex 0.0000000000e+00 5.7443288904e-01 1.3865627162e+00
     vertex 1.0212150519e+00 5.7443288904e-01 1.3865627162e+00
     vertex 1.0212150519e+00 1.0612500134e+00 1.0612499676e+00
   endloop
 endfacet
 facet normal  -3.0158926149e-16 5.5560795228e-01 8.3144440786e-01
   outer loop
     vertex 0.0000000000e+00 5.7443288904e-01 1.3865627162e+00
     vertex 1.0212150519e+00 1.0612500134e+00 1.0612499676e+00
     vertex 0.0000000000e+00 1.0612500134e+00 1.0612499676e+00
   endloop
 endfacet
 facet normal  -3.0158926913e-16 8.3144433709e-01 5.5560805819e-01
   outer loop
     vertex 0.0000000000e+00 1.0612500134e+00 1.0612499676e+00
     vertex 1.0212150519e+00 1.0612500134e+00 1.0612499676e+00
     vertex 1.0212150519e+00 1.3865626921e+00 5.7443308216e-01
   endloop
 endfacet
 facet normal  -4.8237169005e-16 8.3144433709e-01 5.5560805819e-01
   outer loop
     vertex 0.0000000000e+00 1.0612500134e+00 1.0612499676e+00
     vertex 1.0212150519e+00 1.3865626921e+00 5.7443308216e-01
     vertex 0.0000000000e+00 1.3865626921e+00 5.7443308216e-01
   endloop
 endfacet
 facet normal  -4.6874880076e-16 9.8105379579e-01 1.9373551497e-01
   outer loop
     vertex 0.0000000000e+00 1.3865626921e+00 5.7443308216e-01
     vertex 1.0212150519e+00 1.3865626921e+00 5.7443308216e-01
     vertex 1.0212150519e+00 1.5000000000e+00 -6.4807655150e-08
   endloop
 endfacet
 facet normal  -2.1331226908e-16 9.8105379579e-01 1.9373551497e-01
   outer loop
     vertex 0.0000000000e+00 1.3865626921e+00 5.7443308216e-01
     vertex 1.0212150519e+00 1.5000000000e+00 -6.4807655150e-08
     vertex 0.0000000000e+00 1.5000000000e+00 -6.4807655150e-08
   endloop
 endfacet
 facet normal  -2.1331227092e-16 9.8105378113e-01 -1.9373558921e-01
   outer loop
     vertex 0.0000000000e+00 1.5000000000e+00 -6.4807655150e-08
     vertex 1.0212150519e+00 1.5000000000e+00 -6.4807655150e-08
     vertex 1.0212150519e+00 1.3865627225e+00 -5.7443282914e-01
   endloop
 endfacet
 facet normal  -4.4768667367e-16 9.8105378113e-01 -1.9373558921e-01
   outer loop
     vertex 0.0000000000e+00 1.5000000000e+00 -6.4807655150e-08
     vertex 1.0212150519e+00 1.3865627225e+00 -5.7443282914e-01
     vertex 0.0000000000e+00 1.3865627225e+00 -5.7443282914e-01
   endloop
 endfacet
 facet normal  -4.2196829810e-16 8.3144445527e-01 -5.5560788133e-01
   outer loop
     vertex 0.0000000000e+00 1.3865627225e+00 -5.7443282914e-01
     vertex 1.0212150519e+00 1.3865627225e+00 -5.7443282914e-01
     vertex 1.0212150519e+00 1.0612500843e+00 -1.0612498782e+00
   endloop
 endfacet
 facet normal  -1.2080680977e-16 8.3144445527e-01 -5.5560788133e-01
   outer loop
     vertex 0.0000000000e+00 1.3865627225e+00 -5.7443282914e-01
     vertex 1.0212150519e+00 1.0612500843e+00 -1.0612498782e+00
     vertex 0.0000000000e+00 1.0612500843e+00 -1.0612498782e+00
   endloop
 endfacet
 facet normal  -1.8078240848e-16 5.5560814377e-01 -8.3144427990e-01
   outer loop
     vertex 0.0000000000e+00 1.0612500843e+00 -1.0612498782e+00
     vertex 1.0212150519e+00 1.0612500843e+00 -1.0612498782e+00
     vertex 1.0212150519e+00 5.7443314206e-01 -1.3865626672e+00
   endloop
 endfacet
 facet normal  -2.4118584189e-16 5.5560814377e-01 -8.3144427990e-01
   outer loop
     vertex 0.0000000000e+00 1.0612500843e+00 -1.0612498782e+00
     vertex 1.0212150519e+00 5.7443314206e-01 -1.3865626672e+00
     vertex 0.0000000000e+00 5.7443314206e-01 -1.3865626672e+00
   endloop
 endfacet
 facet normal  -2.3437440317e-16 1.9373555735e-01 -9.8105378742e-01
   outer loop
     vertex 0.0000000000e+00 5.7443314206e-01 -1.3865626672e+00
     vertex 1.0212150519e+00 5.7443314206e-01 -1.3865626672e+00
     vertex 1.0212150519e+00 0.0000000000e+00 -1.5000000000e+00
   endloop
 endfacet
 facet normal  -2.1331226977e-16 1.9373555735e-01 -9.8105378742e-01
   outer loop
     vertex 0.0000000000e+00 5.7443314206e-01 -1.3865626672e+00
     vertex 1.0212150519e+00 0.0000000000e+00 -1.5000000000e+00
     vertex 0.0000000000e+00 0.0000000000e+00 -1.5000000000e+00
   endloop
 endfacet
 facet normal  -2.1331226977e-16 -1.9373555735e-01 -9.8105378742e-01
   outer loop
     vertex 0.0000000000e+00 0.0000000000e+00 -1.5000000000e+00
     vertex 1.0212150519e+00 0.0000000000e+00 -1.5000000000e+00
     vertex 1.0212150519e+00 -5.7443314206e-01 -1.3865626672e+00
   endloop
 endfacet
 facet normal  -2.3437440317e-16 -1.9373555735e-01 -9.8105378742e-01
   outer loop
     vertex 0.0000000000e+00 0.0000000000e+00 -1.5000000000e+00
     vertex 1.0212150519e+00 -5.7443314206e-01 -1.3865626672e+00
     vertex 0.0000000000e+00 -5.7443314206e-01 -1.3865626672e+00
   endloop
 endfacet
 facet normal  -2.4118584189e-16 -5.5560814377e-01 -8.3144427990e-01
   outer loop
     vertex 0.0000000000e+00 -5.7443314206e-01 -1.3865626672e+00
     vertex 1.0212150519e+00 -5.7443314206e-01 -1.3865626672e+00
     vertex 1.0212150519e+00 -1.0612500843e+00 -1.0612498782e+00
   endloop
 endfacet
 facet normal  -1.8078240848e-16 -5.5560814377e-01 -8.3144427990e-01
   outer loop
     vertex 0.0000000000e+00 -5.7443314206e-01 -1.3865626672e+00
     vertex 1.0212150519e+00 -1.0612500843e+00 -1.0612498782e+00
     vertex 0.0000000000e+00 -1.0612500843e+00 -1.0612498782e+00
   endloop
 endfacet
 facet normal  -1.2080680977e-16 -8.3144445527e-01 -5.5560788133e-01
   outer loop
     vertex 0.0000000000e+00 -1.0612500843e+00 -1.0612498782e+00
     vertex 1.0212150519e+00 -1.0612500843e+00 -1.0612498782e+00
     vertex 1.0212150519e+00 -1.3865627225e+00 -5.7443282914e-01
   endloop
 endfacet
 facet normal  -4.2196829810e-16 -8.3144445527e-01 -5.5560788133e-01
   outer loop
     vertex 0.0000000000e+00 -1.0612500843e+00 -1.0612498782e+00
     vertex 1.0212150519e+00 -1.3865627225e+00 -5.7443282914e-01
     vertex 0.0000000000e+00 -1.3865627225e+00 -5.7443282914e-01
   endloop
 endfacet
 facet normal  -4.4768667367e-16 -9.8105378113e-01 -1.9373558921e-01
   outer loop
     vertex 0.0000000000e+00 -1.3865627225e+00 -5.7443282914e-01
     vertex 1.0212150519e+00 -1.3865627225e+00 -5.7443282914e-01
     vertex 1.0212150519e+00 -1.5000000000e+00 -6.4807655150e-08
   endloop
 endfacet
 facet normal  -2.1331227092e-16 -9.8105378113e-01 -1.9373558921e-01
   outer loop
     vertex 0.0000000000e+00 -1.3865627225e+00 -5.7443282914e-01
     vertex 1.0212150519e+00 -1.5000000000e+00 -6.4807655150e-08
     vertex 0.0000000000e+00 -1.5000000000e+00 -6.4807655150e-08
   endloop
 endfacet
 facet normal  -2.1331226908e-16 -9.8105379579e-01 1.9373551497e-01
   outer loop
     vertex 0.0000000000e+00 -1.5000000000e+00 -6.4807655150e-08
     vertex 1.0212150519e+00 -1.5000000000e+00 -6.4807655150e-08
     vertex 1.0212150519e+00 -1.3865626921e+00 5.7443308216e-01
   endloop
 endfacet
 facet normal  -4.6874880076e-16 -9.8105379579e-01 1.9373551497e-01
   outer loop
     vertex 0.0000000000e+00 -1.5000000000e+00 -6.4807655150e-08
     vertex 1.0212150519e+00 -1.3865626921e+00 5.7443308216e-01
     vertex 0.0000000000e+00 -1.3865626921e+00 5.7443308216e-01
   endloop
 endfacet
 facet normal  -4.8237169005e-16 -8.3144433709e-01 5.5560805819e-01
   outer loop
     vertex 0.0000000000e+00 -1.3865626921e+00 5.7443308216e-01
     vertex 1.0212150519e+00 -1.3865626921e+00 5.7443308216e-01
     vertex 1.0212150519e+00 -1.0612500134e+00 1.0612499676e+00
   endloop
 endfacet
 facet normal  -3.0158926913e-16 -8.3144433709e-01 5.5560805819e-01
   outer loop
     vertex 0.0000000000e+00 -1.3865626921e+00 5.7443308216e-01
     vertex 1.0212150519e+00 -1.0612500134e+00 1.0612499676e+00
     vertex 0.0000000000e+00 -1.0612500134e+00 1.0612499676e+00
   endloop
 endfacet
 facet normal  -3.0158926149e-16 -5.5560795228e-01 8.3144440786e-01
   outer loop
     vertex 0.0000000000e+00 -1.0612500134e+00 1.0612499676e+00
     vertex 1.0212150519e+00 -1.0612500134e+00 1.0612499676e+00
     vertex 1.0212150519e+00 -5.7443288904e-01 1.3865627162e+00
   endloop
 endfacet
 facet normal  -1.2080682520e-16 -5.5560795228e-01 8.3144440786e-01
   outer loop
     vertex 0.0000000000e+00 -1.0612500134e+00 1.0612499676e+00
     vertex 1.0212150519e+00 -5.7443288904e-01 1.3865627162e+00
     vertex 0.0000000000e+00 -5.7443288904e-01 1.3865627162e+00
   endloop
 endfacet
 facet normal  -4.2124267151e-17 -1.9373555902e-01 9.8105378709e-01
   outer loop
     vertex 0.0000000000e+00 -5.7443288904e-01 1.3865627162e+00
     vertex 1.0212150519e+00 -5.7443288904e-01 1.3865627162e+00
     vertex 1.0212150519e+00 0.0000000000e+00 1.5000000000e+00
   endloop
 endfacet
 facet normal  -2.1331226970e-16 -1.9373555902e-01 9.8105378709e-01
   outer loop
     vertex 0.0000000000e+00 -5.7443288904e-01 1.3865627162e+00
     vertex 1.0212150519e+00 0.0000000000e+00 1.5000000000e+00
     vertex 0.0000000000e+00 0.0000000000e+00 1.5000000000e+00
   endloop
 endfacet
 facet normal  0.0000000000e+00 1.9373555902e-01 9.8105378709e-01
   outer loop
     vertex 1.0212150519e+00 0.0000000000e+00 1.5000000000e+00
     vertex 2.2226445246e+00 0.0000000000e+00 1.5000000000e+00
     vertex 2.2226445246e+00 5.7443288904e-01 1.3865627162e+00
   endloop
 endfacet
 facet normal  1.7902813539e-17 1.9373555902e-01 9.8105378709e-01
   outer loop
     vertex 1.0212150519e+00 0.0000000000e+00 1.5000000000e+00
     vertex 2.2226445246e+00 5.7443288904e-01 1.3865627162e+00
     vertex 1.0212150519e+00 5.7443288904e-01 1.3865627162e+00
   endloop
 endfacet
 facet normal  5.1342900708e-17 5.5560795228e-01 8.3144440786e-01
   outer loop
     vertex 1.0212150519e+00 5.7443288904e-01 1.3865627162e+00
     vertex 2.2226445246e+00 5.7443288904e-01 1.3865627162e+00
     vertex 2.2226445246e+00 1.0612500134e+00 1.0612499676e+00
   endloop
 endfacet
 facet normal  2.5635087227e-16 5.5560795228e-01 8.3144440786e-01
   outer loop
     vertex 1.0212150519e+00 5.7443288904e-01 1.3865627162e+00
     vertex 2.2226445246e+00 1.0612500134e+00 1.0612499676e+00
     vertex 1.0212150519e+00 1.0612500134e+00 1.0612499676e+00
   endloop
 endfacet
 facet normal  2.5635087876e-16 8.3144433709e-01 5.5560805819e-01
   outer loop
     vertex 1.0212150519e+00 1.0612500134e+00 1.0612499676e+00
     vertex 2.2226445246e+00 1.0612500134e+00 1.0612499676e+00
     vertex 2.2226445246e+00 1.3865626921e+00 5.7443308216e-01
   endloop
 endfacet
 facet normal  2.5635087876e-16 8.3144433709e-01 5.5560805819e-01
   outer loop
     vertex 1.0212150519e+00 1.0612500134e+00 1.0612499676e+00
     vertex 2.2226445246e+00 1.3865626921e+00 5.7443308216e-01
     vertex 1.0212150519e+00 1.3865626921e+00 5.7443308216e-01
   endloop
 endfacet
 facet normal  2.1712104979e-16 9.8105379579e-01 1.9373551497e-01
   outer loop
     vertex 1.0212150519e+00 1.3865626921e+00 5.7443308216e-01
     vertex 2.2226445246e+00 1.3865626921e+00 5.7443308216e-01
     vertex 2.2226445246e+00 1.5000000000e+00 -6.4807655150e-08
   endloop
 endfacet
 facet normal  1.8131543085e-16 9.8105379579e-01 1.9373551497e-01
   outer loop
     vertex 1.0212150519e+00 1.3865626921e+00 5.7443308216e-01
     vertex 2.2226445246e+00 1.5000000000e+00 -6.4807655150e-08
     vertex 1.0212150519e+00 1.5000000000e+00 -6.4807655150e-08
   endloop
 endfacet
 facet normal  1.8131542814e-16 9.8105378113e-01 -1.9373558921e-01
   outer loop
     vertex 1.0212150519e+00 1.5000000000e+00 -6.4807655150e-08
     vertex 2.2226445246e+00 1.5000000000e+00 -6.4807655150e-08
     vertex 2.2226445246e+00 1.3865627225e+00 -5.7443282914e-01
   endloop
 endfacet
 facet normal  1.9921824447e-16 9.8105378113e-01 -1.9373558921e-01
   outer loop
     vertex 1.0212150519e+00 1.5000000000e+00 -6.4807655150e-08
     vertex 2.2226445246e+00 1.3865627225e+00 -5.7443282914e-01
     vertex 1.0212150519e+00 1.3865627225e+00 -5.7443282914e-01
   endloop
 endfacet
 facet normal  2.0500797377e-16 8.3144445527e-01 -5.5560788133e-01
   outer loop
     vertex 1.0212150519e+00 1.3865627225e+00 -5.7443282914e-01
     vertex 2.2226445246e+00 1.3865627225e+00 -5.7443282914e-01
     vertex 2.2226445246e+00 1.0612500843e+00 -1.0612498782e+00
   endloop
 endfacet
 facet normal  1.0268578830e-16 8.3144445527e-01 -5.5560788133e-01
   outer loop
     vertex 1.0212150519e+00 1.3865627225e+00 -5.7443282914e-01
     vertex 2.2226445246e+00 1.0612500843e+00 -1.0612498782e+00
     vertex 1.0212150519e+00 1.0612500843e+00 -1.0612498782e+00
   endloop
 endfacet
 facet normal  1.5366504720e-16 5.5560814377e-01 -8.3144427990e-01
   outer loop
     vertex 1.0212150519e+00 1.0612500843e+00 -1.0612498782e+00
     vertex 2.2226445246e+00 1.0612500843e+00 -1.0612498782e+00
     vertex 2.2226445246e+00 5.7443314206e-01 -1.3865626672e+00
   endloop
 endfacet
 facet normal  2.0500796561e-16 5.5560814377e-01 -8.3144427990e-01
   outer loop
     vertex 1.0212150519e+00 1.0612500843e+00 -1.0612498782e+00
     vertex 2.2226445246e+00 5.7443314206e-01 -1.3865626672e+00
     vertex 1.0212150519e+00 5.7443314206e-01 -1.3865626672e+00
   endloop
 endfacet
 facet normal  1.9921824269e-16 1.9373555735e-01 -9.8105378742e-01
   outer loop
     vertex 1.0212150519e+00 5.7443314206e-01 -1.3865626672e+00
     vertex 2.2226445246e+00 5.7443314206e-01 -1.3865626672e+00
     vertex 2.2226445246e+00 0.0000000000e+00 -1.5000000000e+00
   endloop
 endfacet
 facet normal  0.0000000000e+00 1.9373555735e-01 -9.8105378742e-01
   outer loop
     vertex 1.0212150519e+00 5.7443314206e-01 -1.3865626672e+00
     vertex 2.2226445246e+00 0.0000000000e+00 -1.5000000000e+00
     vertex 1.0212150519e+00 0.0000000000e+00 -1.5000000000e+00
   endloop
 endfacet
 facet normal  -0.0000000000e+00 -1.9373555735e-01 -9.8105378742e-01
   outer loop
     vertex 1.0212150519e+00 0.0000000000e+00 -1.5000000000e+00
     vertex 2.2226445246e+00 0.0000000000e+00 -1.5000000000e+00
     vertex 2.2226445246e+00 -5.7443314206e-01 -1.3865626672e+00
   endloop
 endfacet
 facet normal  1.9921824269e-16 -1.9373555735e-01 -9.8105378742e-01
   outer loop
     vertex 1.0212150519e+00 0.0000000000e+00 -1.5000000000e+00
     vertex 2.2226445246e+00 -5.7443314206e-01 -1.3865626672e+00
     vertex 1.0212150519e+00 -5.7443314206e-01 -1.3865626672e+00
   endloop
 endfacet
 facet normal  2.0500796561e-16 -5.5560814377e-01 -8.3144427990e-01
   outer loop
     vertex 1.0212150519e+00 -5.7443314206e-01 -1.3865626672e+00
     vertex 2.2226445246e+00 -5.7443314206e-01 -1.3865626672e+00
     vertex 2.2226445246e+00 -1.0612500843e+00 -1.0612498782e+00
   endloop
 endfacet
 facet normal  1.5366504720e-16 -5.5560814377e-01 -8.3144427990e-01
   outer loop
     vertex 1.0212150519e+00 -5.7443314206e-01 -1.3865626672e+00
     vertex 2.2226445246e+00 -1.0612500843e+00 -1.0612498782e+00
     vertex 1.0212150519e+00 -1.0612500843e+00 -1.0612498782e+00
   endloop
 endfacet
 facet normal  1.0268578830e-16 -8.3144445527e-01 -5.5560788133e-01
   outer loop
     vertex 1.0212150519e+00 -1.0612500843e+00 -1.0612498782e+00
     vertex 2.2226445246e+00 -1.0612500843e+00 -1.0612498782e+00
     vertex 2.2226445246e+00 -1.3865627225e+00 -5.7443282914e-01
   endloop
 endfacet
 facet normal  2.0500797377e-16 -8.3144445527e-01 -5.5560788133e-01
   outer loop
     vertex 1.0212150519e+00 -1.0612500843e+00 -1.0612498782e+00
     vertex 2.2226445246e+00 -1.3865627225e+00 -5.7443282914e-01
     vertex 1.0212150519e+00 -1.3865627225e+00 -5.7443282914e-01
   endloop
 endfacet
 facet normal  1.9921824447e-16 -9.8105378113e-01 -1.9373558921e-01
   outer loop
     vertex 1.0212150519e+00 -1.3865627225e+00 -5.7443282914e-01
     vertex 2.2226445246e+00 -1.3865627225e+00 -5.7443282914e-01
     vertex 2.2226445246e+00 -1.5000000000e+00 -6.4807655150e-08
   endloop
 endfacet
 facet normal  1.8131542814e-16 -9.8105378113e-01 -1.9373558921e-01
   outer loop
     vertex 1.0212150519e+00 -1.3865627225e+00 -5.7443282914e-01
     vertex 2.2226445246e+00 -1.5000000000e+00 -6.4807655150e-08
     vertex 1.0212150519e+00 -1.5000000000e+00 -6.4807655150e-08
   endloop
 endfacet
 facet normal  1.8131543085e-16 -9.8105379579e-01 1.9373551497e-01
   outer loop
     vertex 1.0212150519e+00 -1.5000000000e+00 -6.4807655150e-08
     vertex 2.2226445246e+00 -1.5000000000e+00 -6.4807655150e-08
     vertex 2.2226445246e+00 -1.3865626921e+00 5.7443308216e-01
   endloop
 endfacet
 facet normal  2.1712104979e-16 -9.8105379579e-01 1.9373551497e-01
   outer loop
     vertex 1.0212150519e+00 -1.5000000000e+00 -6.4807655150e-08
     vertex 2.2226445246e+00 -1.3865626921e+00 5.7443308216e-01
     vertex 1.0212150519e+00 -1.3865626921e+00 5.7443308216e-01
   endloop
 endfacet
 facet normal  2.5635087876e-16 -8.3144433709e-01 5.5560805819e-01
   outer loop
     vertex 1.0212150519e+00 -1.3865626921e+00 5.7443308216e-01
     vertex 2.2226445246e+00 -1.3865626921e+00 5.7443308216e-01
     vertex 2.2226445246e+00 -1.0612500134e+00 1.0612499676e+00
   endloop
 endfacet
 facet normal  2.5635087876e-16 -8.3144433709e-01 5.5560805819e-01
   outer loop
     vertex 1.0212150519e+00 -1.3865626921e+00 5.7443308216e-01
     vertex 2.2226445246e+00 -1.0612500134e+00 1.0612499676e+00
     vertex 1.0212150519e+00 -1.0612500134e+00 1.0612499676e+00
   endloop
 endfacet
 facet normal  2.5635087227e-16 -5.5560795228e-01 8.3144440786e-01
   outer loop
     vertex 1.0212150519e+00 -1.0612500134e+00 1.0612499676e+00
     vertex 2.2226445246e+00 -1.0612500134e+00 1.0612499676e+00
     vertex 2.2226445246e+00 -5.7443288904e-01 1.3865627162e+00
   endloop
 endfacet
 facet normal  5.1342900708e-17 -5.5560795228e-01 8.3144440786e-01
   outer loop
     vertex 1.0212150519e+00 -1.0612500134e+00 1.0612499676e+00
     vertex 2.2226445246e+00 -5.7443288904e-01 1.3865627162e+00
     vertex 1.0212150519e+00 -5.7443288904e-01 1.3865627162e+00
   endloop
 endfacet
 facet normal  1.7902813539e-17 -1.9373555902e-01 9.8105378709e-01
   outer loop
     vertex 1.0212150519e+00 -5.7443288904e-01 1.3865627162e+00
     vertex 2.2226445246e+00 -5.7443288904e-01 1.3865627162e+00
     vertex 2.2226445246e+00 0.0000000000e+00 1.5000000000e+00
   endloop
 endfacet
 facet normal  0.0000000000e+00 -1.9373555902e-01 9.8105378709e-01
   outer loop
     vertex 1.0212150519e+00 -5.7443288904e-01 1.3865627162e+00
     vertex 2.2226445246e+00 0.0000000000e+00 1.5000000000e+00
     vertex 1.0212150519e+00 0.0000000000e+00 1.5000000000e+00
   endloop
 endfacet
 facet normal  2.1331226970e-16 1.9373555902e-01 9.8105378709e-01
   outer loop
     vertex 2.2226445246e+00 0.0000000000e+00 1.5000000000e+00
     vertex 3.2438595765e+00 0.0000000000e+00 1.5000000000e+00
     vertex 3.2438595765e+00 5.7443288904e-01 1.3865627162e+00
   endloop
 endfacet
 facet normal  2.1062133576e-17 1.9373555902e-01 9.8105378709e-01
   outer loop
     vertex 2.2226445246e+00 0.0000000000e+00 1.5000000000e+00
     vertex 3.2438595765e+00 5.7443288904e-01 1.3865627162e+00
     vertex 2.2226445246e+00 5.7443288904e-01 1.3865627162e+00
   endloop
 endfacet
 facet normal  6.0403412598e-17 5.5560795228e-01 8.3144440786e-01
   outer loop
     vertex 2.2226445246e+00 5.7443288904e-01 1.3865627162e+00
     vertex 3.2438595765e+00 5.7443288904e-01 1.3865627162e+00
     vertex 3.2438595765e+00 1.0612500134e+00 1.0612499676e+00
   endloop
 endfacet
 facet normal  0.0000000000e+00 5.5560795228e-01 8.3144440786e-01
   outer loop
     vertex 2.2226445246e+00 5.7443288904e-01 1.3865627162e+00
     vertex 3.2438595765e+00 1.0612500134e+00 1.0612499676e+00
     vertex 2.2226445246e+00 1.0612500134e+00 1.0612499676e+00
   endloop
 endfacet
 facet normal  0.0000000000e+00 8.3144433709e-01 5.5560805819e-01
   outer loop
     vertex 2.2226445246e+00 1.0612500134e+00 1.0612499676e+00
     vertex 3.2438595765e+00 1.0612500134e+00 1.0612499676e+00
     vertex 3.2438595765e+00 1.3865626921e+00 5.7443308216e-01
   endloop
 endfacet
 facet normal  1.8078242091e-16 8.3144433709e-01 5.5560805819e-01
   outer loop
     vertex 2.2226445246e+00 1.0612500134e+00 1.0612499676e+00
     vertex 3.2438595765e+00 1.3865626921e+00 5.7443308216e-01
     vertex 2.2226445246e+00 1.3865626921e+00 5.7443308216e-01
   endloop
 endfacet
 facet normal  2.1331227159e-16 9.8105379579e-01 1.9373551497e-01
   outer loop
     vertex 2.2226445246e+00 1.3865626921e+00 5.7443308216e-01
     vertex 3.2438595765e+00 1.3865626921e+00 5.7443308216e-01
     vertex 3.2438595765e+00 1.5000000000e+00 -6.4807655150e-08
   endloop
 endfacet
 facet normal  -2.5108014090e-24 9.8105379579e-01 1.9373551497e-01
   outer loop
     vertex 2.2226445246e+00 1.3865626921e+00 5.7443308216e-01
     vertex 3.2438595765e+00 1.5000000000e+00 -6.4807655150e-08
     vertex 2.2226445246e+00 1.5000000000e+00 -6.4807655150e-08
   endloop
 endfacet
 facet normal  2.5108023711e-24 9.8105378113e-01 -1.9373558921e-01
   outer loop
     vertex 2.2226445246e+00 1.5000000000e+00 -6.4807655150e-08
     vertex 3.2438595765e+00 1.5000000000e+00 -6.4807655150e-08
     vertex 3.2438595765e+00 1.3865627225e+00 -5.7443282914e-01
   endloop
 endfacet
 facet normal  2.1331226841e-16 9.8105378113e-01 -1.9373558921e-01
   outer loop
     vertex 2.2226445246e+00 1.5000000000e+00 -6.4807655150e-08
     vertex 3.2438595765e+00 1.3865627225e+00 -5.7443282914e-01
     vertex 2.2226445246e+00 1.3865627225e+00 -5.7443282914e-01
   endloop
 endfacet
 facet normal  1.8078244661e-16 8.3144445527e-01 -5.5560788133e-01
   outer loop
     vertex 2.2226445246e+00 1.3865627225e+00 -5.7443282914e-01
     vertex 3.2438595765e+00 1.3865627225e+00 -5.7443282914e-01
     vertex 3.2438595765e+00 1.0612500843e+00 -1.0612498782e+00
   endloop
 endfacet
 facet normal  0.0000000000e+00 8.3144445527e-01 -5.5560788133e-01
   outer loop
     vertex 2.2226445246e+00 1.3865627225e+00 -5.7443282914e-01
     vertex 3.2438595765e+00 1.0612500843e+00 -1.0612498782e+00
     vertex 2.2226445246e+00 1.0612500843e+00 -1.0612498782e+00
   endloop
 endfacet
 facet normal  0.0000000000e+00 5.5560814377e-01 -8.3144427990e-01
   outer loop
     vertex 2.2226445246e+00 1.0612500843e+00 -1.0612498782e+00
     vertex 3.2438595765e+00 1.0612500843e+00 -1.0612498782e+00
     vertex 3.2438595765e+00 5.7443314206e-01 -1.3865626672e+00
   endloop
 endfacet
 facet normal  0.0000000000e+00 5.5560814377e-01 -8.3144427990e-01
   outer loop
     vertex 2.2226445246e+00 1.0612500843e+00 -1.0612498782e+00
     vertex 3.2438595765e+00 5.7443314206e-01 -1.3865626672e+00
     vertex 2.2226445246e+00 5.7443314206e-01 -1.3865626672e+00
   endloop
 endfacet
 facet normal  0.0000000000e+00 1.9373555735e-01 -9.8105378742e-01
   outer loop
     vertex 2.2226445246e+00 5.7443314206e-01 -1.3865626672e+00
     vertex 3.2438595765e+00 5.7443314206e-01 -1.3865626672e+00
     vertex 3.2438595765e+00 0.0000000000e+00 -1.5000000000e+00
   endloop
 endfacet
 facet normal  2.1331226977e-16 1.9373555735e-01 -9.8105378742e-01
   outer loop
     vertex 2.2226445246e+00 5.7443314206e-01 -1.3865626672e+00
     vertex 3.2438595765e+00 0.0000000000e+00 -1.5000000000e+00
     vertex 2.2226445246e+00 0.0000000000e+00 -1.5000000000e+00
   endloop
 endfacet
 facet normal  2.1331226977e-16 -1.9373555735e-01 -9.8105378742e-01
   outer loop
     vertex 2.2226445246e+00 0.0000000000e+00 -1.5000000000e+00
     vertex 3.2438595765e+00 0.0000000000e+00 -1.5000000000e+00
     vertex 3.2438595765e+00 -5.7443314206e-01 -1.3865626672e+00
   endloop
 endfacet
 facet normal  -0.0000000000e+00 -1.9373555735e-01 -9.8105378742e-01
   outer loop
     vertex 2.2226445246e+00 0.0000000000e+00 -1.5000000000e+00
     vertex 3.2438595765e+00 -5.7443314206e-01 -1.3865626672e+00
     vertex 2.2226445246e+00 -5.7443314206e-01 -1.3865626672e+00
   endloop
 endfacet
 facet normal  -0.0000000000e+00 -5.5560814377e-01 -8.3144427990e-01
   outer loop
     vertex 2.2226445246e+00 -5.7443314206e-01 -1.3865626672e+00
     vertex 3.2438595765e+00 -5.7443314206e-01 -1.3865626672e+00
     vertex 3.2438595765e+00 -1.0612500843e+00 -1.0612498782e+00
   endloop
 endfacet
 facet normal  -0.0000000000e+00 -5.5560814377e-01 -8.3144427990e-01
   outer loop
     vertex 2.2226445246e+00 -5.7443314206e-01 -1.3865626672e+00
     vertex 3.2438595765e+00 -1.0612500843e+00 -1.0612498782e+00
     vertex 2.2226445246e+00 -1.0612500843e+00 -1.0612498782e+00
   endloop
 endfacet
 facet normal  -0.0000000000e+00 -8.3144445527e-01 -5.5560788133e-01
   outer loop
     vertex 2.2226445246e+00 -1.0612500843e+00 -1.0612498782e+00
     vertex 3.2438595765e+00 -1.0612500843e+00 -1.0612498782e+00
     vertex 3.2438595765e+00 -1.3865627225e+00 -5.7443282914e-01
   endloop
 endfacet
 facet normal  1.8078244661e-16 -8.3144445527e-01 -5.5560788133e-01
   outer loop
     vertex 2.2226445246e+00 -1.0612500843e+00 -1.0612498782e+00
     vertex 3.2438595765e+00 -1.3865627225e+00 -5.7443282914e-01
     vertex 2.2226445246e+00 -1.3865627225e+00 -5.7443282914e-01
   endloop
 endfacet
 facet normal  2.1331226841e-16 -9.8105378113e-01 -1.9373558921e-01
   outer loop
     vertex 2.2226445246e+00 -1.3865627225e+00 -5.7443282914e-01
     vertex 3.2438595765e+00 -1.3865627225e+00 -5.7443282914e-01
     vertex 3.2438595765e+00 -1.5000000000e+00 -6.4807655150e-08
   endloop
 endfacet
 facet normal  2.5108023711e-24 -9.8105378113e-01 -1.9373558921e-01
   outer loop
     vertex 2.2226445246e+00 -1.3865627225e+00 -5.7443282914e-01
     vertex 3.2438595765e+00 -1.5000000000e+00 -6.4807655150e-08
     vertex 2.2226445246e+00 -1.5000000000e+00 -6.4807655150e-08
   endloop
 endfacet
 facet normal  -2.5108014090e-24 -9.8105379579e-01 1.9373551497e-01
   outer loop
     vertex 2.2226445246e+00 -1.5000000000e+00 -6.4807655150e-08
     vertex 3.2438595765e+00 -1.5000000000e+00 -6.4807655150e-08
     vertex 3.2438595765e+00 -1.3865626921e+00 5.7443308216e-01
   endloop
 endfacet
 facet normal  2.1331227159e-16 -9.8105379579e-01 1.9373551497e-01
   outer loop
     vertex 2.2226445246e+00 -1.5000000000e+00 -6.4807655150e-08
     vertex 3.2438595765e+00 -1.3865626921e+00 5.7443308216e-01
     vertex 2.2226445246e+00 -1.3865626921e+00 5.7443308216e-01
   endloop
 endfacet
 facet normal  1.8078242091e-16 -8.3144433709e-01 5.5560805819e-01
   outer loop
     vertex 2.2226445246e+00 -1.3865626921e+00 5.7443308216e-01
     vertex 3.2438595765e+00 -1.3865626921e+00 5.7443308216e-01
     vertex 3.2438595765e+00 -1.0612500134e+00 1.0612499676e+00
   endloop
 endfacet
 facet normal  0.0000000000e+00 -8.3144433709e-01 5.5560805819e-01
   outer loop
     vertex 2.2226445246e+00 -1.3865626921e+00 5.7443308216e-01
     vertex 3.2438595765e+00 -1.0612500134e+00 1.0612499676e+00
     vertex 2.2226445246e+00 -1.0612500134e+00 1.0612499676e+00
   endloop
 endfacet
 facet normal  0.0000000000e+00 -5.5560795228e-01 8.3144440786e-01
   outer loop
     vertex 2.2226445246e+00 -1.0612500134e+00 1.0612499676e+00
     vertex 3.2438595765e+00 -1.0612500134e+00 1.0612499676e+00
     vertex 3.2438595765e+00 -5.7443288904e-01 1.3865627162e+00
   endloop
 endfacet
 facet normal  6.0403412598e-17 -5.5560795228e-01 8.3144440786e-01
   outer loop
     vertex 2.2226445246e+00 -1.0612500134e+00 1.0612499676e+00
     vertex 3.2438595765e+00 -5.7443288904e-01 1.3865627162e+00
     vertex 2.2226445246e+00 -5.7443288904e-01 1.3865627162e+00
   endloop
 endfacet
 facet normal  2.1062133576e-17 -1.9373555902e-01 9.8105378709e-01
   outer loop
     vertex 2.2226445246e+00 -5.7443288904e-01 1.3865627162e+00
     vertex 3.2438595765e+00 -5.7443288904e-01 1.3865627162e+00
     vertex 3.2438595765e+00 0.0000000000e+00 1.5000000000e+00
   endloop
 endfacet
 facet normal  2.1331226970e-16 -1.9373555902e-01 9.8105378709e-01
   outer loop
     vertex 2.2226445246e+00 -5.7443288904e-01 1.3865627162e+00
     vertex 3.2438595765e+00 0.0000000000e+00 1.5000000000e+00
     vertex 2.2226445246e+00 0.0000000000e+00 1.5000000000e+00
   endloop
 endfacet
 facet normal  4.5194456222e-02 1.9353717475e-01 9.8005143902e-01
   outer loop
     vertex 3.2438595765e+00 0.0000000000e+00 1.5000000000e+00
     vertex 5.6533277599e+00 0.0000000000e+00 1.3888888889e+00
     vertex 5.6533329803e+00 5.3188230467e-01 1.2838543668e+00
   endloop
 endfacet
 facet normal  4.5194354624e-02 1.9353760257e-01 9.8005135922e-01
   outer loop
     vertex 3.2438595765e+00 0.0000000000e+00 1.5000000000e+00
     vertex 5.6533329803e+00 5.3188230467e-01 1.2838543668e+00
     vertex 3.2438595765e+00 5.7443288904e-01 1.3865627162e+00
   endloop
 endfacet
 facet normal  4.5207491131e-02 5.5503991287e-01 8.3059435217e-01
   outer loop
     vertex 3.2438595765e+00 5.7443288904e-01 1.3865627162e+00
     vertex 5.6533329803e+00 5.3188230467e-01 1.2838543668e+00
     vertex 5.6533329262e+00 9.8263890134e-01 9.8263885889e-01
   endloop
 endfacet
 facet normal  4.5207492185e-02 5.5503990909e-01 8.3059435464e-01
   outer loop
     vertex 3.2438595765e+00 5.7443288904e-01 1.3865627162e+00
     vertex 5.6533329262e+00 9.8263890134e-01 9.8263885889e-01
     vertex 3.2438595765e+00 1.0612500134e+00 1.0612499676e+00
   endloop
 endfacet
 facet normal  4.5207493756e-02 8.3059428136e-01 5.5504001863e-01
   outer loop
     vertex 3.2438595765e+00 1.0612500134e+00 1.0612499676e+00
     vertex 5.6533329262e+00 9.8263890134e-01 9.8263885889e-01
     vertex 5.6533329806e+00 1.2838543445e+00 5.3188248348e-01
   endloop
 endfacet
 facet normal  4.5207492696e-02 8.3059428392e-01 5.5504001488e-01
   outer loop
     vertex 3.2438595765e+00 1.0612500134e+00 1.0612499676e+00
     vertex 5.6533329806e+00 1.2838543445e+00 5.3188248348e-01
     vertex 3.2438595765e+00 1.3865626921e+00 5.7443308216e-01
   endloop
 endfacet
 facet normal  4.5194350695e-02 9.8005145239e-01 1.9353713164e-01
   outer loop
     vertex 3.2438595765e+00 1.3865626921e+00 5.7443308216e-01
     vertex 5.6533329806e+00 1.2838543445e+00 5.3188248348e-01
     vertex 5.6533277599e+00 1.3888888889e+00 -6.0007088102e-08
   endloop
 endfacet
 facet normal  4.5194452358e-02 9.8005136357e-01 1.9353755771e-01
   outer loop
     vertex 3.2438595765e+00 1.3865626921e+00 5.7443308216e-01
     vertex 5.6533277599e+00 1.3888888889e+00 -6.0007088102e-08
     vertex 3.2438595765e+00 1.5000000000e+00 -6.4807655150e-08
   endloop
 endfacet
 facet normal  4.5194456333e-02 9.8005143305e-01 -1.9353720491e-01
   outer loop
     vertex 3.2438595765e+00 1.5000000000e+00 -6.4807655150e-08
     vertex 5.6533277599e+00 1.3888888889e+00 -6.0007088102e-08
     vertex 5.6533329802e+00 1.2838543726e+00 -5.3188224920e-01
   endloop
 endfacet
 facet normal  4.5194354737e-02 9.8005135326e-01 -1.9353763272e-01
   outer loop
     vertex 3.2438595765e+00 1.5000000000e+00 -6.4807655150e-08
     vertex 5.6533329802e+00 1.2838543726e+00 -5.3188224920e-01
     vertex 3.2438595765e+00 1.3865627225e+00 -5.7443282914e-01
   endloop
 endfacet
 facet normal  4.5207491038e-02 8.3059439954e-01 -5.5503984200e-01
   outer loop
     vertex 3.2438595765e+00 1.3865627225e+00 -5.7443282914e-01
     vertex 5.6533329802e+00 1.2838543726e+00 -5.3188224920e-01
     vertex 5.6533329261e+00 9.8263896695e-01 -9.8263877610e-01
   endloop
 endfacet
 facet normal  4.5207492092e-02 8.3059440201e-01 -5.5503983822e-01
   outer loop
     vertex 3.2438595765e+00 1.3865627225e+00 -5.7443282914e-01
     vertex 5.6533329261e+00 9.8263896695e-01 -9.8263877610e-01
     vertex 3.2438595765e+00 1.0612500843e+00 -1.0612498782e+00
   endloop
 endfacet
 facet normal  4.5207493222e-02 5.5504010415e-01 -8.3059422424e-01
   outer loop
     vertex 3.2438595765e+00 1.0612500843e+00 -1.0612498782e+00
     vertex 5.6533329261e+00 9.8263896695e-01 -9.8263877610e-01
     vertex 5.6533329806e+00 5.3188253895e-01 -1.2838543215e+00
   endloop
 endfacet
 facet normal  4.5207492160e-02 5.5504010039e-01 -8.3059422681e-01
   outer loop
     vertex 3.2438595765e+00 1.0612500843e+00 -1.0612498782e+00
     vertex 5.6533329806e+00 5.3188253895e-01 -1.2838543215e+00
     vertex 3.2438595765e+00 5.7443314206e-01 -1.3865626672e+00
   endloop
 endfacet
 facet normal  4.5194350695e-02 1.9353717399e-01 -9.8005144403e-01
   outer loop
     vertex 3.2438595765e+00 5.7443314206e-01 -1.3865626672e+00
     vertex 5.6533329806e+00 5.3188253895e-01 -1.2838543215e+00
     vertex 5.6533277599e+00 0.0000000000e+00 -1.3888888889e+00
   endloop
 endfacet
 facet normal  4.5194452358e-02 1.9353760005e-01 -9.8005135521e-01
   outer loop
     vertex 3.2438595765e+00 5.7443314206e-01 -1.3865626672e+00
     vertex 5.6533277599e+00 0.0000000000e+00 -1.3888888889e+00
     vertex 3.2438595765e+00 0.0000000000e+00 -1.5000000000e+00
   endloop
 endfacet
 facet normal  4.5194456238e-02 -1.9353717306e-01 -9.8005143935e-01
   outer loop
     vertex 3.2438595765e+00 0.0000000000e+00 -1.5000000000e+00
     vertex 5.6533277599e+00 0.0000000000e+00 -1.3888888889e+00
     vertex 5.6533329806e+00 -5.3188253895e-01 -1.2838543215e+00
   endloop
 endfacet
 facet normal  4.5194354633e-02 -1.9353760091e-01 -9.8005135954e-01
   outer loop
     vertex 3.2438595765e+00 0.0000000000e+00 -1.5000000000e+00
     vertex 5.6533329806e+00 -5.3188253895e-01 -1.2838543215e+00
     vertex 3.2438595765e+00 -5.7443314206e-01 -1.3865626672e+00
   endloop
 endfacet
 facet normal  4.5207492119e-02 -5.5504010417e-01 -8.3059422429e-01
   outer loop
     vertex 3.2438595765e+00 -5.7443314206e-01 -1.3865626672e+00
     vertex 5.6533329806e+00 -5.3188253895e-01 -1.2838543215e+00
     vertex 5.6533329261e+00 -9.8263896695e-01 -9.8263877610e-01
   endloop
 endfacet
 facet normal  4.5207493181e-02 -5.5504010037e-01 -8.3059422677e-01
   outer loop
     vertex 3.2438595765e+00 -5.7443314206e-01 -1.3865626672e+00
     vertex 5.6533329261e+00 -9.8263896695e-01 -9.8263877610e-01
     vertex 3.2438595765e+00 -1.0612500843e+00 -1.0612498782e+00
   endloop
 endfacet
 facet normal  4.5207492132e-02 -8.3059439950e-01 -5.5503984197e-01
   outer loop
     vertex 3.2438595765e+00 -1.0612500843e+00 -1.0612498782e+00
     vertex 5.6533329261e+00 -9.8263896695e-01 -9.8263877610e-01
     vertex 5.6533329802e+00 -1.2838543726e+00 -5.3188224920e-01
   endloop
 endfacet
 facet normal  4.5207491079e-02 -8.3059440204e-01 -5.5503983825e-01
   outer loop
     vertex 3.2438595765e+00 -1.0612500843e+00 -1.0612498782e+00
     vertex 5.6533329802e+00 -1.2838543726e+00 -5.3188224920e-01
     vertex 3.2438595765e+00 -1.3865627225e+00 -5.7443282914e-01
   endloop
 endfacet
 facet normal  4.5194350799e-02 -9.8005143774e-01 -1.9353720584e-01
   outer loop
     vertex 3.2438595765e+00 -1.3865627225e+00 -5.7443282914e-01
     vertex 5.6533329802e+00 -1.2838543726e+00 -5.3188224920e-01
     vertex 5.6533277599e+00 -1.3888888889e+00 -6.0007088102e-08
   endloop
 endfacet
 facet normal  4.5194452453e-02 -9.8005134892e-01 -1.9353763187e-01
   outer loop
     vertex 3.2438595765e+00 -1.3865627225e+00 -5.7443282914e-01
     vertex 5.6533277599e+00 -1.3888888889e+00 -6.0007088102e-08
     vertex 3.2438595765e+00 -1.5000000000e+00 -6.4807655150e-08
   endloop
 endfacet
 facet normal  4.5194456238e-02 -9.8005144771e-01 1.9353713072e-01
   outer loop
     vertex 3.2438595765e+00 -1.5000000000e+00 -6.4807655150e-08
     vertex 5.6533277599e+00 -1.3888888889e+00 -6.0007088102e-08
     vertex 5.6533329806e+00 -1.2838543445e+00 5.3188248348e-01
   endloop
 endfacet
 facet normal  4.5194354633e-02 -9.8005136791e-01 1.9353755856e-01
   outer loop
     vertex 3.2438595765e+00 -1.5000000000e+00 -6.4807655150e-08
     vertex 5.6533329806e+00 -1.2838543445e+00 5.3188248348e-01
     vertex 3.2438595765e+00 -1.3865626921e+00 5.7443308216e-01
   endloop
 endfacet
 facet normal  4.5207492655e-02 -8.3059428140e-01 5.5504001866e-01
   outer loop
     vertex 3.2438595765e+00 -1.3865626921e+00 5.7443308216e-01
     vertex 5.6533329806e+00 -1.2838543445e+00 5.3188248348e-01
     vertex 5.6533329262e+00 -9.8263890134e-01 9.8263885889e-01
   endloop
 endfacet
 facet normal  4.5207493715e-02 -8.3059428388e-01 5.5504001486e-01
   outer loop
     vertex 3.2438595765e+00 -1.3865626921e+00 5.7443308216e-01
     vertex 5.6533329262e+00 -9.8263890134e-01 9.8263885889e-01
     vertex 3.2438595765e+00 -1.0612500134e+00 1.0612499676e+00
   endloop
 endfacet
 facet normal  4.5207492225e-02 -5.5503991284e-01 8.3059435213e-01
   outer loop
     vertex 3.2438595765e+00 -1.0612500134e+00 1.0612499676e+00
     vertex 5.6533329262e+00 -9.8263890134e-01 9.8263885889e-01
     vertex 5.6533329803e+00 -5.3188230467e-01 1.2838543668e+00
   endloop
 endfacet
 facet normal  4.5207491171e-02 -5.5503990912e-01 8.3059435468e-01
   outer loop
     vertex 3.2438595765e+00 -1.0612500134e+00 1.0612499676e+00
     vertex 5.6533329803e+00 -5.3188230467e-01 1.2838543668e+00
     vertex 3.2438595765e+00 -5.7443288904e-01 1.3865627162e+00
   endloop
 endfacet
 facet normal  4.5194350686e-02 -1.9353717568e-01 9.8005144370e-01
   outer loop
     vertex 3.2438595765e+00 -5.7443288904e-01 1.3865627162e+00
     vertex 5.6533329803e+00 -5.3188230467e-01 1.2838543668e+00
     vertex 5.6533277599e+00 0.0000000000e+00 1.3888888889e+00
   endloop
 endfacet
 facet normal  4.5194452342e-02 -1.9353760172e-01 9.8005135488e-01
   outer loop
     vertex 3.2438595765e+00 -5.7443288904e-01 1.3865627162e+00
     vertex 5.6533277599e+00 0.0000000000e+00 1.3888888889e+00
     vertex 3.2438595765e+00 0.0000000000e+00 1.5000000000e+00
   endloop
 endfacet
 facet normal  9.4549575521e-02 1.9286676046e-01 9.7665899396e-01
   outer loop
     vertex 5.6533277599e+00 0.0000000000e+00 1.3888888889e+00
     vertex 8.5226602079e+00 0.0000000000e+00 1.1111111111e+00
     vertex 8.5226643842e+00 4.2550584374e-01 1.0270834935e+00
   endloop
 endfacet
 facet normal  9.4549575521e-02 1.9286676046e-01 9.7665899396e-01
   outer loop
     vertex 5.6533277599e+00 0.0000000000e+00 1.3888888889e+00
     vertex 8.5226643842e+00 4.2550584374e-01 1.0270834935e+00
     vertex 5.6533329803e+00 5.3188230467e-01 1.2838543668e+00
   endloop
 endfacet
 facet normal  9.4576885028e-02 5.5311748097e-01 8.2771750317e-01
   outer loop
     vertex 5.6533329803e+00 5.3188230467e-01 1.2838543668e+00
     vertex 8.5226643842e+00 4.2550584374e-01 1.0270834935e+00
     vertex 8.5226643409e+00 7.8611112107e-01 7.8611108711e-01
   endloop
 endfacet
 facet normal  9.4576885028e-02 5.5311748097e-01 8.2771750317e-01
   outer loop
     vertex 5.6533329803e+00 5.3188230467e-01 1.2838543668e+00
     vertex 8.5226643409e+00 7.8611112107e-01 7.8611108711e-01
     vertex 5.6533329262e+00 9.8263890134e-01 9.8263885889e-01
   endloop
 endfacet
 facet normal  9.4576888209e-02 8.2771743243e-01 5.5311758629e-01
   outer loop
     vertex 5.6533329262e+00 9.8263890134e-01 9.8263885889e-01
     vertex 8.5226643409e+00 7.8611112107e-01 7.8611108711e-01
     vertex 8.5226643845e+00 1.0270834756e+00 4.2550598678e-01
   endloop
 endfacet
 facet normal  9.4576888209e-02 8.2771743243e-01 5.5311758629e-01
   outer loop
     vertex 5.6533329262e+00 9.8263890134e-01 9.8263885889e-01
     vertex 8.5226643845e+00 1.0270834756e+00 4.2550598678e-01
     vertex 5.6533329806e+00 1.2838543445e+00 5.3188248348e-01
   endloop
 endfacet
 facet normal  9.4549575553e-02 9.7665900263e-01 1.9286671655e-01
   outer loop
     vertex 5.6533329806e+00 1.2838543445e+00 5.3188248348e-01
     vertex 8.5226643845e+00 1.0270834756e+00 4.2550598678e-01
     vertex 8.5226602079e+00 1.1111111111e+00 -4.8005670482e-08
   endloop
 endfacet
 facet normal  9.4549575553e-02 9.7665900263e-01 1.9286671655e-01
   outer loop
     vertex 5.6533329806e+00 1.2838543445e+00 5.3188248348e-01
     vertex 8.5226602079e+00 1.1111111111e+00 -4.8005670482e-08
     vertex 5.6533277599e+00 1.3888888889e+00 -6.0007088102e-08
   endloop
 endfacet
 facet normal  9.4549575751e-02 9.7665898800e-01 -1.9286679052e-01
   outer loop
     vertex 5.6533277599e+00 1.3888888889e+00 -6.0007088102e-08
     vertex 8.5226602079e+00 1.1111111111e+00 -4.8005670482e-08
     vertex 8.5226643842e+00 1.0270834981e+00 -4.2550579936e-01
   endloop
 endfacet
 facet normal  9.4549575751e-02 9.7665898800e-01 -1.9286679052e-01
   outer loop
     vertex 5.6533277599e+00 1.3888888889e+00 -6.0007088102e-08
     vertex 8.5226643842e+00 1.0270834981e+00 -4.2550579936e-01
     vertex 5.6533329802e+00 1.2838543726e+00 -5.3188224920e-01
   endloop
 endfacet
 facet normal  9.4576884831e-02 8.2771755039e-01 -5.5311741035e-01
   outer loop
     vertex 5.6533329802e+00 1.2838543726e+00 -5.3188224920e-01
     vertex 8.5226643842e+00 1.0270834981e+00 -4.2550579936e-01
     vertex 8.5226643409e+00 7.8611117356e-01 -7.8611102088e-01
   endloop
 endfacet
 facet normal  9.4576884831e-02 8.2771755039e-01 -5.5311741035e-01
   outer loop
     vertex 5.6533329802e+00 1.2838543726e+00 -5.3188224920e-01
     vertex 8.5226643409e+00 7.8611117356e-01 -7.8611102088e-01
     vertex 5.6533329261e+00 9.8263896695e-01 -9.8263877610e-01
   endloop
 endfacet
 facet normal  9.4576887096e-02 5.5311767156e-01 -8.2771737558e-01
   outer loop
     vertex 5.6533329261e+00 9.8263896695e-01 -9.8263877610e-01
     vertex 8.5226643409e+00 7.8611117356e-01 -7.8611102088e-01
     vertex 8.5226643845e+00 4.2550603116e-01 -1.0270834572e+00
   endloop
 endfacet
 facet normal  9.4576887096e-02 5.5311767156e-01 -8.2771737558e-01
   outer loop
     vertex 5.6533329261e+00 9.8263896695e-01 -9.8263877610e-01
     vertex 8.5226643845e+00 4.2550603116e-01 -1.0270834572e+00
     vertex 5.6533329806e+00 5.3188253895e-01 -1.2838543215e+00
   endloop
 endfacet
 facet normal  9.4549575553e-02 1.9286675875e-01 -9.7665899429e-01
   outer loop
     vertex 5.6533329806e+00 5.3188253895e-01 -1.2838543215e+00
     vertex 8.5226643845e+00 4.2550603116e-01 -1.0270834572e+00
     vertex 8.5226602079e+00 0.0000000000e+00 -1.1111111111e+00
   endloop
 endfacet
 facet normal  9.4549575553e-02 1.9286675875e-01 -9.7665899429e-01
   outer loop
     vertex 5.6533329806e+00 5.3188253895e-01 -1.2838543215e+00
     vertex 8.5226602079e+00 0.0000000000e+00 -1.1111111111e+00
     vertex 5.6533277599e+00 0.0000000000e+00 -1.3888888889e+00
   endloop
 endfacet
 facet normal  9.4549575553e-02 -1.9286675875e-01 -9.7665899429e-01
   outer loop
     vertex 5.6533277599e+00 0.0000000000e+00 -1.3888888889e+00
     vertex 8.5226602079e+00 0.0000000000e+00 -1.1111111111e+00
     vertex 8.5226643845e+00 -4.2550603116e-01 -1.0270834572e+00
   endloop
 endfacet
 facet normal  9.4549575553e-02 -1.9286675875e-01 -9.7665899429e-01
   outer loop
     vertex 5.6533277599e+00 0.0000000000e+00 -1.3888888889e+00
     vertex 8.5226643845e+00 -4.2550603116e-01 -1.0270834572e+00
     vertex 5.6533329806e+00 -5.3188253895e-01 -1.2838543215e+00
   endloop
 endfacet
 facet normal  9.4576887096e-02 -5.5311767156e-01 -8.2771737558e-01
   outer loop
     vertex 5.6533329806e+00 -5.3188253895e-01 -1.2838543215e+00
     vertex 8.5226643845e+00 -4.2550603116e-01 -1.0270834572e+00
     vertex 8.5226643409e+00 -7.8611117356e-01 -7.8611102088e-01
   endloop
 endfacet
 facet normal  9.4576887096e-02 -5.5311767156e-01 -8.2771737558e-01
   outer loop
     vertex 5.6533329806e+00 -5.3188253895e-01 -1.2838543215e+00
     vertex 8.5226643409e+00 -7.8611117356e-01 -7.8611102088e-01
     vertex 5.6533329261e+00 -9.8263896695e-01 -9.8263877610e-01
   endloop
 endfacet
 facet normal  9.4576884831e-02 -8.2771755039e-01 -5.5311741035e-01
   outer loop
     vertex 5.6533329261e+00 -9.8263896695e-01 -9.8263877610e-01
     vertex 8.5226643409e+00 -7.8611117356e-01 -7.8611102088e-01
     vertex 8.5226643842e+00 -1.0270834981e+00 -4.2550579936e-01
   endloop
 endfacet
 facet normal  9.4576884831e-02 -8.2771755039e-01 -5.5311741035e-01
   outer loop
     vertex 5.6533329261e+00 -9.8263896695e-01 -9.8263877610e-01
     vertex 8.5226643842e+00 -1.0270834981e+00 -4.2550579936e-01
     vertex 5.6533329802e+00 -1.2838543726e+00 -5.3188224920e-01
   endloop
 endfacet
 facet normal  9.4549575751e-02 -9.7665898800e-01 -1.9286679052e-01
   outer loop
     vertex 5.6533329802e+00 -1.2838543726e+00 -5.3188224920e-01
     vertex 8.5226643842e+00 -1.0270834981e+00 -4.2550579936e-01
     vertex 8.5226602079e+00 -1.1111111111e+00 -4.8005670482e-08
   endloop
 endfacet
 facet normal  9.4549575751e-02 -9.7665898800e-01 -1.9286679052e-01
   outer loop
     vertex 5.6533329802e+00 -1.2838543726e+00 -5.3188224920e-01
     vertex 8.5226602079e+00 -1.1111111111e+00 -4.8005670482e-08
     vertex 5.6533277599e+00 -1.3888888889e+00 -6.0007088102e-08
   endloop
 endfacet
 facet normal  9.4549575553e-02 -9.7665900263e-01 1.9286671655e-01
   outer loop
     vertex 5.6533277599e+00 -1.3888888889e+00 -6.0007088102e-08
     vertex 8.5226602079e+00 -1.1111111111e+00 -4.8005670482e-08
     vertex 8.5226643845e+00 -1.0270834756e+00 4.2550598678e-01
   endloop
 endfacet
 facet normal  9.4549575553e-02 -9.7665900263e-01 1.9286671655e-01
   outer loop
     vertex 5.6533277599e+00 -1.3888888889e+00 -6.0007088102e-08
     vertex 8.5226643845e+00 -1.0270834756e+00 4.2550598678e-01
     vertex 5.6533329806e+00 -1.2838543445e+00 5.3188248348e-01
   endloop
 endfacet
 facet normal  9.4576888209e-02 -8.2771743243e-01 5.5311758629e-01
   outer loop
     vertex 5.6533329806e+00 -1.2838543445e+00 5.3188248348e-01
     vertex 8.5226643845e+00 -1.0270834756e+00 4.2550598678e-01
     vertex 8.5226643409e+00 -7.8611112107e-01 7.8611108711e-01
   endloop
 endfacet
 facet normal  9.4576888209e-02 -8.2771743243e-01 5.5311758629e-01
   outer loop
     vertex 5.6533329806e+00 -1.2838543445e+00 5.3188248348e-01
     vertex 8.5226643409e+00 -7.8611112107e-01 7.8611108711e-01
     vertex 5.6533329262e+00 -9.8263890134e-01 9.8263885889e-01
   endloop
 endfacet
 facet normal  9.4576885028e-02 -5.5311748097e-01 8.2771750317e-01
   outer loop
     vertex 5.6533329262e+00 -9.8263890134e-01 9.8263885889e-01
     vertex 8.5226643409e+00 -7.8611112107e-01 7.8611108711e-01
     vertex 8.5226643842e+00 -4.2550584374e-01 1.0270834935e+00
   endloop
 endfacet
 facet normal  9.4576885028e-02 -5.5311748097e-01 8.2771750317e-01
   outer loop
     vertex 5.6533329262e+00 -9.8263890134e-01 9.8263885889e-01
     vertex 8.5226643842e+00 -4.2550584374e-01 1.0270834935e+00
     vertex 5.6533329803e+00 -5.3188230467e-01 1.2838543668e+00
   endloop
 endfacet
 facet normal  9.4549575521e-02 -1.9286676046e-01 9.7665899396e-01
   outer loop
     vertex 5.6533329803e+00 -5.3188230467e-01 1.2838543668e+00
     vertex 8.5226643842e+00 -4.2550584374e-01 1.0270834935e+00
     vertex 8.5226602079e+00 0.0000000000e+00 1.1111111111e+00
   endloop
 endfacet
 facet normal  9.4549575521e-02 -1.9286676046e-01 9.7665899396e-01
   outer loop
     vertex 5.6533329803e+00 -5.3188230467e-01 1.2838543668e+00
     vertex 8.5226602079e+00 0.0000000000e+00 1.1111111111e+00
     vertex 5.6533277599e+00 0.0000000000e+00 1.3888888889e+00
   endloop
 endfacet
 facet normal  1.1356803187e-01 1.9248213298e-01 9.7470658694e-01
   outer loop
     vertex 8.5226602079e+00 0.0000000000e+00 1.1111111111e+00
     vertex 1.1621924788e+01 0.0000000000e+00 7.5000000000e-01
     vertex 1.1621924788e+01 2.8721644452e-01 6.9328135809e-01
   endloop
 endfacet
 facet normal  1.1356815820e-01 1.9248105736e-01 9.7470678463e-01
   outer loop
     vertex 8.5226602079e+00 0.0000000000e+00 1.1111111111e+00
     vertex 1.1621924788e+01 2.8721644452e-01 6.9328135809e-01
     vertex 8.5226643842e+00 4.2550584374e-01 1.0270834935e+00
   endloop
 endfacet
 facet normal  1.1360083432e-01 5.5201120861e-01 8.2606202916e-01
   outer loop
     vertex 8.5226643842e+00 4.2550584374e-01 1.0270834935e+00
     vertex 1.1621924788e+01 2.8721644452e-01 6.9328135809e-01
     vertex 1.1621924788e+01 5.3062500672e-01 5.3062498380e-01
   endloop
 endfacet
 facet normal  1.1360083301e-01 5.5201121812e-01 8.2606202298e-01
   outer loop
     vertex 8.5226643842e+00 4.2550584374e-01 1.0270834935e+00
     vertex 1.1621924788e+01 5.3062500672e-01 5.3062498380e-01
     vertex 8.5226643409e+00 7.8611112107e-01 7.8611108711e-01
   endloop
 endfacet
 facet normal  1.1360083656e-01 8.2606195863e-01 5.5201131369e-01
   outer loop
     vertex 8.5226643409e+00 7.8611112107e-01 7.8611108711e-01
     vertex 1.1621924788e+01 5.3062500672e-01 5.3062498380e-01
     vertex 1.1621924788e+01 6.9328134603e-01 2.8721654108e-01
   endloop
 endfacet
 facet normal  1.1360083788e-01 8.2606195216e-01 5.5201132309e-01
   outer loop
     vertex 8.5226643409e+00 7.8611112107e-01 7.8611108711e-01
     vertex 1.1621924788e+01 6.9328134603e-01 2.8721654108e-01
     vertex 8.5226643845e+00 1.0270834756e+00 4.2550598678e-01
   endloop
 endfacet
 facet normal  1.1356818297e-01 9.7470657864e-01 1.9248208586e-01
   outer loop
     vertex 8.5226643845e+00 1.0270834756e+00 4.2550598678e-01
     vertex 1.1621924788e+01 6.9328134603e-01 2.8721654108e-01
     vertex 1.1621924788e+01 7.5000000000e-01 -3.2403827575e-08
   endloop
 endfacet
 facet normal  1.1356805627e-01 9.7470680472e-01 1.9248101578e-01
   outer loop
     vertex 8.5226643845e+00 1.0270834756e+00 4.2550598678e-01
     vertex 1.1621924788e+01 7.5000000000e-01 -3.2403827575e-08
     vertex 8.5226602079e+00 1.1111111111e+00 -4.8005670482e-08
   endloop
 endfacet
 facet normal  1.1356803214e-01 9.7470658099e-01 -1.9248216296e-01
   outer loop
     vertex 8.5226602079e+00 1.1111111111e+00 -4.8005670482e-08
     vertex 1.1621924788e+01 7.5000000000e-01 -3.2403827575e-08
     vertex 1.1621924788e+01 6.9328136123e-01 -2.8721641457e-01
   endloop
 endfacet
 facet normal  1.1356815847e-01 9.7470677867e-01 -1.9248108736e-01
   outer loop
     vertex 8.5226602079e+00 1.1111111111e+00 -4.8005670482e-08
     vertex 1.1621924788e+01 6.9328136123e-01 -2.8721641457e-01
     vertex 8.5226643842e+00 1.0270834981e+00 -4.2550579936e-01
   endloop
 endfacet
 facet normal  1.1360083409e-01 8.2606207628e-01 -5.5201113814e-01
   outer loop
     vertex 8.5226643842e+00 1.0270834981e+00 -4.2550579936e-01
     vertex 1.1621924788e+01 6.9328136123e-01 -2.8721641457e-01
     vertex 1.1621924788e+01 5.3062504215e-01 -5.3062493909e-01
   endloop
 endfacet
 facet normal  1.1360083277e-01 8.2606207011e-01 -5.5201114765e-01
   outer loop
     vertex 8.5226643842e+00 1.0270834981e+00 -4.2550579936e-01
     vertex 1.1621924788e+01 5.3062504215e-01 -5.3062493909e-01
     vertex 8.5226643409e+00 7.8611117356e-01 -7.8611102088e-01
   endloop
 endfacet
 facet normal  1.1360083523e-01 5.5201139880e-01 -8.2606190193e-01
   outer loop
     vertex 8.5226643409e+00 7.8611117356e-01 -7.8611102088e-01
     vertex 1.1621924788e+01 5.3062504215e-01 -5.3062493909e-01
     vertex 1.1621924788e+01 2.8721657103e-01 -6.9328133362e-01
   endloop
 endfacet
 facet normal  1.1360083655e-01 5.5201140822e-01 -8.2606189546e-01
   outer loop
     vertex 8.5226643409e+00 7.8611117356e-01 -7.8611102088e-01
     vertex 1.1621924788e+01 2.8721657103e-01 -6.9328133362e-01
     vertex 8.5226643845e+00 4.2550603116e-01 -1.0270834572e+00
   endloop
 endfacet
 facet normal  1.1356818297e-01 1.9248212797e-01 -9.7470657032e-01
   outer loop
     vertex 8.5226643845e+00 4.2550603116e-01 -1.0270834572e+00
     vertex 1.1621924788e+01 2.8721657103e-01 -6.9328133362e-01
     vertex 1.1621924788e+01 0.0000000000e+00 -7.5000000000e-01
   endloop
 endfacet
 facet normal  1.1356805627e-01 1.9248105789e-01 -9.7470679640e-01
   outer loop
     vertex 8.5226643845e+00 4.2550603116e-01 -1.0270834572e+00
     vertex 1.1621924788e+01 0.0000000000e+00 -7.5000000000e-01
     vertex 8.5226602079e+00 0.0000000000e+00 -1.1111111111e+00
   endloop
 endfacet
 facet normal  1.1356803190e-01 -1.9248213132e-01 -9.7470658726e-01
   outer loop
     vertex 8.5226602079e+00 0.0000000000e+00 -1.1111111111e+00
     vertex 1.1621924788e+01 0.0000000000e+00 -7.5000000000e-01
     vertex 1.1621924788e+01 -2.8721657103e-01 -6.9328133362e-01
   endloop
 endfacet
 facet normal  1.1356815824e-01 -1.9248105563e-01 -9.7470678496e-01
   outer loop
     vertex 8.5226602079e+00 0.0000000000e+00 -1.1111111111e+00
     vertex 1.1621924788e+01 -2.8721657103e-01 -6.9328133362e-01
     vertex 8.5226643845e+00 -4.2550603116e-01 -1.0270834572e+00
   endloop
 endfacet
 facet normal  1.1360083681e-01 -5.5201139870e-01 -8.2606190178e-01
   outer loop
     vertex 8.5226643845e+00 -4.2550603116e-01 -1.0270834572e+00
     vertex 1.1621924788e+01 -2.8721657103e-01 -6.9328133362e-01
     vertex 1.1621924788e+01 -5.3062504215e-01 -5.3062493909e-01
   endloop
 endfacet
 facet normal  1.1360083548e-01 -5.5201140829e-01 -8.2606189556e-01
   outer loop
     vertex 8.5226643845e+00 -4.2550603116e-01 -1.0270834572e+00
     vertex 1.1621924788e+01 -5.3062504215e-01 -5.3062493909e-01
     vertex 8.5226643409e+00 -7.8611117356e-01 -7.8611102088e-01
   endloop
 endfacet
 facet normal  1.1360083252e-01 -8.2606207643e-01 -5.5201113824e-01
   outer loop
     vertex 8.5226643409e+00 -7.8611117356e-01 -7.8611102088e-01
     vertex 1.1621924788e+01 -5.3062504215e-01 -5.3062493909e-01
     vertex 1.1621924788e+01 -6.9328136123e-01 -2.8721641457e-01
   endloop
 endfacet
 facet normal  1.1360083383e-01 -8.2606207000e-01 -5.5201114758e-01
   outer loop
     vertex 8.5226643409e+00 -7.8611117356e-01 -7.8611102088e-01
     vertex 1.1621924788e+01 -6.9328136123e-01 -2.8721641457e-01
     vertex 8.5226643842e+00 -1.0270834981e+00 -4.2550579936e-01
   endloop
 endfacet
 facet normal  1.1356818320e-01 -9.7470656405e-01 -1.9248215961e-01
   outer loop
     vertex 8.5226643842e+00 -1.0270834981e+00 -4.2550579936e-01
     vertex 1.1621924788e+01 -6.9328136123e-01 -2.8721641457e-01
     vertex 1.1621924788e+01 -7.5000000000e-01 -3.2403827575e-08
   endloop
 endfacet
 facet normal  1.1356805651e-01 -9.7470679011e-01 -1.9248108962e-01
   outer loop
     vertex 8.5226643842e+00 -1.0270834981e+00 -4.2550579936e-01
     vertex 1.1621924788e+01 -7.5000000000e-01 -3.2403827575e-08
     vertex 8.5226602079e+00 -1.1111111111e+00 -4.8005670482e-08
   endloop
 endfacet
 facet normal  1.1356803190e-01 -9.7470659558e-01 1.9248208921e-01
   outer loop
     vertex 8.5226602079e+00 -1.1111111111e+00 -4.8005670482e-08
     vertex 1.1621924788e+01 -7.5000000000e-01 -3.2403827575e-08
     vertex 1.1621924788e+01 -6.9328134603e-01 2.8721654108e-01
   endloop
 endfacet
 facet normal  1.1356815824e-01 -9.7470679328e-01 1.9248101352e-01
   outer loop
     vertex 8.5226602079e+00 -1.1111111111e+00 -4.8005670482e-08
     vertex 1.1621924788e+01 -6.9328134603e-01 2.8721654108e-01
     vertex 8.5226643845e+00 -1.0270834756e+00 4.2550598678e-01
   endloop
 endfacet
 facet normal  1.1360083814e-01 -8.2606195848e-01 5.5201131359e-01
   outer loop
     vertex 8.5226643845e+00 -1.0270834756e+00 4.2550598678e-01
     vertex 1.1621924788e+01 -6.9328134603e-01 2.8721654108e-01
     vertex 1.1621924788e+01 -5.3062500672e-01 5.3062498380e-01
   endloop
 endfacet
 facet normal  1.1360083682e-01 -8.2606195226e-01 5.5201132316e-01
   outer loop
     vertex 8.5226643845e+00 -1.0270834756e+00 4.2550598678e-01
     vertex 1.1621924788e+01 -5.3062500672e-01 5.3062498380e-01
     vertex 8.5226643409e+00 -7.8611112107e-01 7.8611108711e-01
   endloop
 endfacet
 facet normal  1.1360083276e-01 -5.5201120871e-01 8.2606202931e-01
   outer loop
     vertex 8.5226643409e+00 -7.8611112107e-01 7.8611108711e-01
     vertex 1.1621924788e+01 -5.3062500672e-01 5.3062498380e-01
     vertex 1.1621924788e+01 -2.8721644452e-01 6.9328135809e-01
   endloop
 endfacet
 facet normal  1.1360083407e-01 -5.5201121805e-01 8.2606202288e-01
   outer loop
     vertex 8.5226643409e+00 -7.8611112107e-01 7.8611108711e-01
     vertex 1.1621924788e+01 -2.8721644452e-01 6.9328135809e-01
     vertex 8.5226643842e+00 -4.2550584374e-01 1.0270834935e+00
   endloop
 endfacet
 facet normal  1.1356818293e-01 -1.9248212963e-01 9.7470657000e-01
   outer loop
     vertex 8.5226643842e+00 -4.2550584374e-01 1.0270834935e+00
     vertex 1.1621924788e+01 -2.8721644452e-01 6.9328135809e-01
     vertex 1.1621924788e+01 0.0000000000e+00 7.5000000000e-01
   endloop
 endfacet
 facet normal  1.1356805623e-01 -1.9248105961e-01 9.7470679606e-01
   outer loop
     vertex 8.5226643842e+00 -4.2550584374e-01 1.0270834935e+00
     vertex 1.1621924788e+01 0.0000000000e+00 7.5000000000e-01
     vertex 8.5226602079e+00 0.0000000000e+00 1.1111111111e+00
   endloop
 endfacet
 facet normal  1.1356796225e-01 1.9248519972e-01 9.7470598943e-01
   outer loop
     vertex 1.1621924788e+01 0.0000000000e+00 7.5000000000e-01
     vertex 1.4721189369e+01 0.0000000000e+00 3.8888888889e-01
     vertex 1.4721185192e+01 1.4892704531e-01 3.5947922272e-01
   endloop
 endfacet
 facet normal  1.1356818293e-01 1.9248212963e-01 9.7470657000e-01
   outer loop
     vertex 1.1621924788e+01 0.0000000000e+00 7.5000000000e-01
     vertex 1.4721185192e+01 1.4892704531e-01 3.5947922272e-01
     vertex 1.1621924788e+01 2.8721644452e-01 6.9328135809e-01
   endloop
 endfacet
 facet normal  1.1360083505e-01 5.5201118162e-01 8.2606204709e-01
   outer loop
     vertex 1.1621924788e+01 2.8721644452e-01 6.9328135809e-01
     vertex 1.4721185192e+01 1.4892704531e-01 3.5947922272e-01
     vertex 1.4721185236e+01 2.7513889238e-01 2.7513888049e-01
   endloop
 endfacet
 facet normal  1.1360083276e-01 5.5201120871e-01 8.2606202931e-01
   outer loop
     vertex 1.1621924788e+01 2.8721644452e-01 6.9328135809e-01
     vertex 1.4721185236e+01 2.7513889238e-01 2.7513888049e-01
     vertex 1.1621924788e+01 5.3062500672e-01 5.3062498380e-01
   endloop
 endfacet
 facet normal  1.1360083583e-01 8.2606197681e-01 5.5201128664e-01
   outer loop
     vertex 1.1621924788e+01 5.3062500672e-01 5.3062498380e-01
     vertex 1.4721185236e+01 2.7513889238e-01 2.7513888049e-01
     vertex 1.4721185192e+01 3.5947921646e-01 1.4892709537e-01
   endloop
 endfacet
 facet normal  1.1360083814e-01 8.2606195848e-01 5.5201131359e-01
   outer loop
     vertex 1.1621924788e+01 5.3062500672e-01 5.3062498380e-01
     vertex 1.4721185192e+01 3.5947921646e-01 1.4892709537e-01
     vertex 1.1621924788e+01 6.9328134603e-01 2.8721654108e-01
   endloop
 endfacet
 facet normal  1.1356825363e-01 9.7470596536e-01 1.9248514969e-01
   outer loop
     vertex 1.1621924788e+01 6.9328134603e-01 2.8721654108e-01
     vertex 1.4721185192e+01 3.5947921646e-01 1.4892709537e-01
     vertex 1.4721189369e+01 3.8888888889e-01 -1.6801984669e-08
   endloop
 endfacet
 facet normal  1.1356803190e-01 9.7470659558e-01 1.9248208921e-01
   outer loop
     vertex 1.1621924788e+01 6.9328134603e-01 2.8721654108e-01
     vertex 1.4721189369e+01 3.8888888889e-01 -1.6801984669e-08
     vertex 1.1621924788e+01 7.5000000000e-01 -3.2403827575e-08
   endloop
 endfacet
 facet normal  1.1356796252e-01 9.7470598349e-01 -1.9248522964e-01
   outer loop
     vertex 1.1621924788e+01 7.5000000000e-01 -3.2403827575e-08
     vertex 1.4721189369e+01 3.8888888889e-01 -1.6801984669e-08
     vertex 1.4721185192e+01 3.5947922434e-01 -1.4892702978e-01
   endloop
 endfacet
 facet normal  1.1356818320e-01 9.7470656405e-01 -1.9248215961e-01
   outer loop
     vertex 1.1621924788e+01 7.5000000000e-01 -3.2403827575e-08
     vertex 1.4721185192e+01 3.5947922434e-01 -1.4892702978e-01
     vertex 1.1621924788e+01 6.9328136123e-01 -2.8721641457e-01
   endloop
 endfacet
 facet normal  1.1360083481e-01 8.2606209421e-01 -5.5201111116e-01
   outer loop
     vertex 1.1621924788e+01 6.9328136123e-01 -2.8721641457e-01
     vertex 1.4721185192e+01 3.5947922434e-01 -1.4892702978e-01
     vertex 1.4721185236e+01 2.7513891075e-01 -2.7513885731e-01
   endloop
 endfacet
 facet normal  1.1360083252e-01 8.2606207643e-01 -5.5201113824e-01
   outer loop
     vertex 1.1621924788e+01 6.9328136123e-01 -2.8721641457e-01
     vertex 1.4721185236e+01 2.7513891075e-01 -2.7513885731e-01
     vertex 1.1621924788e+01 5.3062504215e-01 -5.3062493909e-01
   endloop
 endfacet
 facet normal  1.1360083450e-01 5.5201137171e-01 -8.2606192014e-01
   outer loop
     vertex 1.1621924788e+01 5.3062504215e-01 -5.3062493909e-01
     vertex 1.4721185236e+01 2.7513891075e-01 -2.7513885731e-01
     vertex 1.4721185192e+01 1.4892711091e-01 -3.5947921002e-01
   endloop
 endfacet
 facet normal  1.1360083681e-01 5.5201139870e-01 -8.2606190178e-01
   outer loop
     vertex 1.1621924788e+01 5.3062504215e-01 -5.3062493909e-01
     vertex 1.4721185192e+01 1.4892711091e-01 -3.5947921002e-01
     vertex 1.1621924788e+01 2.8721657103e-01 -6.9328133362e-01
   endloop
 endfacet
 facet normal  1.1356825363e-01 1.9248519181e-01 -9.7470595705e-01
   outer loop
     vertex 1.1621924788e+01 2.8721657103e-01 -6.9328133362e-01
     vertex 1.4721185192e+01 1.4892711091e-01 -3.5947921002e-01
     vertex 1.4721189369e+01 0.0000000000e+00 -3.8888888889e-01
   endloop
 endfacet
 facet normal  1.1356803190e-01 1.9248213132e-01 -9.7470658726e-01
   outer loop
     vertex 1.1621924788e+01 2.8721657103e-01 -6.9328133362e-01
     vertex 1.4721189369e+01 0.0000000000e+00 -3.8888888889e-01
     vertex 1.1621924788e+01 0.0000000000e+00 -7.5000000000e-01
   endloop
 endfacet
 facet normal  1.1356796228e-01 -1.9248519825e-01 -9.7470598972e-01
   outer loop
     vertex 1.1621924788e+01 0.0000000000e+00 -7.5000000000e-01
     vertex 1.4721189369e+01 0.0000000000e+00 -3.8888888889e-01
     vertex 1.4721185192e+01 -1.4892711091e-01 -3.5947921002e-01
   endloop
 endfacet
 facet normal  1.1356818297e-01 -1.9248212797e-01 -9.7470657032e-01
   outer loop
     vertex 1.1621924788e+01 0.0000000000e+00 -7.5000000000e-01
     vertex 1.4721185192e+01 -1.4892711091e-01 -3.5947921002e-01
     vertex 1.1621924788e+01 -2.8721657103e-01 -6.9328133362e-01
   endloop
 endfacet
 facet normal  1.1360083754e-01 -5.5201137151e-01 -8.2606191985e-01
   outer loop
     vertex 1.1621924788e+01 -2.8721657103e-01 -6.9328133362e-01
     vertex 1.4721185192e+01 -1.4892711091e-01 -3.5947921002e-01
     vertex 1.4721185236e+01 -2.7513891075e-01 -2.7513885731e-01
   endloop
 endfacet
 facet normal  1.1360083523e-01 -5.5201139880e-01 -8.2606190193e-01
   outer loop
     vertex 1.1621924788e+01 -2.8721657103e-01 -6.9328133362e-01
     vertex 1.4721185236e+01 -2.7513891075e-01 -2.7513885731e-01
     vertex 1.1621924788e+01 -5.3062504215e-01 -5.3062493909e-01
   endloop
 endfacet
 facet normal  1.1360083179e-01 -8.2606209449e-01 -5.5201111135e-01
   outer loop
     vertex 1.1621924788e+01 -5.3062504215e-01 -5.3062493909e-01
     vertex 1.4721185236e+01 -2.7513891075e-01 -2.7513885731e-01
     vertex 1.4721185192e+01 -3.5947922434e-01 -1.4892702978e-01
   endloop
 endfacet
 facet normal  1.1360083409e-01 -8.2606207628e-01 -5.5201113814e-01
   outer loop
     vertex 1.1621924788e+01 -5.3062504215e-01 -5.3062493909e-01
     vertex 1.4721185192e+01 -3.5947922434e-01 -1.4892702978e-01
     vertex 1.1621924788e+01 -6.9328136123e-01 -2.8721641457e-01
   endloop
 endfacet
 facet normal  1.1356825385e-01 -9.7470595082e-01 -1.9248522320e-01
   outer loop
     vertex 1.1621924788e+01 -6.9328136123e-01 -2.8721641457e-01
     vertex 1.4721185192e+01 -3.5947922434e-01 -1.4892702978e-01
     vertex 1.4721189369e+01 -3.8888888889e-01 -1.6801984669e-08
   endloop
 endfacet
 facet normal  1.1356803214e-01 -9.7470658099e-01 -1.9248216296e-01
   outer loop
     vertex 1.1621924788e+01 -6.9328136123e-01 -2.8721641457e-01
     vertex 1.4721189369e+01 -3.8888888889e-01 -1.6801984669e-08
     vertex 1.1621924788e+01 -7.5000000000e-01 -3.2403827575e-08
   endloop
 endfacet
 facet normal  1.1356796228e-01 -9.7470599804e-01 1.9248515614e-01
   outer loop
     vertex 1.1621924788e+01 -7.5000000000e-01 -3.2403827575e-08
     vertex 1.4721189369e+01 -3.8888888889e-01 -1.6801984669e-08
     vertex 1.4721185192e+01 -3.5947921646e-01 1.4892709537e-01
   endloop
 endfacet
 facet normal  1.1356818297e-01 -9.7470657864e-01 1.9248208586e-01
   outer loop
     vertex 1.1621924788e+01 -7.5000000000e-01 -3.2403827575e-08
     vertex 1.4721185192e+01 -3.5947921646e-01 1.4892709537e-01
     vertex 1.1621924788e+01 -6.9328134603e-01 2.8721654108e-01
   endloop
 endfacet
 facet normal  1.1360083887e-01 -8.2606197652e-01 5.5201128644e-01
   outer loop
     vertex 1.1621924788e+01 -6.9328134603e-01 2.8721654108e-01
     vertex 1.4721185192e+01 -3.5947921646e-01 1.4892709537e-01
     vertex 1.4721185236e+01 -2.7513889238e-01 2.7513888049e-01
   endloop
 endfacet
 facet normal  1.1360083656e-01 -8.2606195863e-01 5.5201131369e-01
   outer loop
     vertex 1.1621924788e+01 -6.9328134603e-01 2.8721654108e-01
     vertex 1.4721185236e+01 -2.7513889238e-01 2.7513888049e-01
     vertex 1.1621924788e+01 -5.3062500672e-01 5.3062498380e-01
   endloop
 endfacet
 facet normal  1.1360083203e-01 -5.5201118181e-01 8.2606204738e-01
   outer loop
     vertex 1.1621924788e+01 -5.3062500672e-01 5.3062498380e-01
     vertex 1.4721185236e+01 -2.7513889238e-01 2.7513888049e-01
     vertex 1.4721185192e+01 -1.4892704531e-01 3.5947922272e-01
   endloop
 endfacet
 facet normal  1.1360083432e-01 -5.5201120861e-01 8.2606202916e-01
   outer loop
     vertex 1.1621924788e+01 -5.3062500672e-01 5.3062498380e-01
     vertex 1.4721185192e+01 -1.4892704531e-01 3.5947922272e-01
     vertex 1.1621924788e+01 -2.8721644452e-01 6.9328135809e-01
   endloop
 endfacet
 facet normal  1.1356825358e-01 -1.9248519328e-01 9.7470595676e-01
   outer loop
     vertex 1.1621924788e+01 -2.8721644452e-01 6.9328135809e-01
     vertex 1.4721185192e+01 -1.4892704531e-01 3.5947922272e-01
     vertex 1.4721189369e+01 0.0000000000e+00 3.8888888889e-01
   endloop
 endfacet
 facet normal  1.1356803187e-01 -1.9248213298e-01 9.7470658694e-01
   outer loop
     vertex 1.1621924788e+01 -2.8721644452e-01 6.9328135809e-01
     vertex 1.4721189369e+01 0.0000000000e+00 3.8888888889e-01
     vertex 1.1621924788e+01 0.0000000000e+00 7.5000000000e-01
   endloop
 endfacet
 facet normal  9.4549347062e-02 1.9287882234e-01 9.7665663406e-01
   outer loop
     vertex 1.4721189369e+01 0.0000000000e+00 3.8888888889e-01
     vertex 1.7590521817e+01 0.0000000000e+00 1.1111111111e-01
     vertex 1.7590516596e+01 4.2550584374e-02 1.0270834935e-01
   endloop
 endfacet
 facet normal  9.4549641763e-02 1.9287020431e-01 9.7665830746e-01
   outer loop
     vertex 1.4721189369e+01 0.0000000000e+00 3.8888888889e-01
     vertex 1.7590516596e+01 4.2550584374e-02 1.0270834935e-01
     vertex 1.4721185192e+01 1.4892704531e-01 3.5947922272e-01
   endloop
 endfacet
 facet normal  9.4576887416e-02 5.5311737486e-01 8.2771757381e-01
   outer loop
     vertex 1.4721185192e+01 1.4892704531e-01 3.5947922272e-01
     vertex 1.7590516596e+01 4.2550584374e-02 1.0270834935e-01
     vertex 1.7590516650e+01 7.8611112107e-02 7.8611108711e-02
   endloop
 endfacet
 facet normal  9.4576884346e-02 5.5311745073e-01 8.2771752346e-01
   outer loop
     vertex 1.4721185192e+01 1.4892704531e-01 3.5947922272e-01
     vertex 1.7590516650e+01 7.8611112107e-02 7.8611108711e-02
     vertex 1.4721185236e+01 2.7513889238e-01 2.7513888049e-01
   endloop
 endfacet
 facet normal  9.4576885808e-02 8.2771750387e-01 5.5311747980e-01
   outer loop
     vertex 1.4721185236e+01 2.7513889238e-01 2.7513888049e-01
     vertex 1.7590516650e+01 7.8611112107e-02 7.8611108711e-02
     vertex 1.7590516596e+01 1.0270834756e-01 4.2550598678e-02
   endloop
 endfacet
 facet normal  9.4576888895e-02 8.2771745274e-01 5.5311755579e-01
   outer loop
     vertex 1.4721185236e+01 2.7513889238e-01 2.7513888049e-01
     vertex 1.7590516596e+01 1.0270834756e-01 4.2550598678e-02
     vertex 1.4721185192e+01 3.5947921646e-01 1.4892709537e-01
   endloop
 endfacet
 facet normal  9.4549807412e-02 9.7665659969e-01 1.9287877075e-01
   outer loop
     vertex 1.4721185192e+01 3.5947921646e-01 1.4892709537e-01
     vertex 1.7590516596e+01 1.0270834756e-01 4.2550598678e-02
     vertex 1.7590521817e+01 1.1111111111e-01 -4.8005670482e-09
   endloop
 endfacet
 facet normal  9.4549510277e-02 9.7665832834e-01 1.9287016302e-01
   outer loop
     vertex 1.4721185192e+01 3.5947921646e-01 1.4892709537e-01
     vertex 1.7590521817e+01 1.1111111111e-01 -4.8005670482e-09
     vertex 1.4721189369e+01 3.8888888889e-01 -1.6801984669e-08
   endloop
 endfacet
 facet normal  9.4549347296e-02 9.7665662815e-01 -1.9287885216e-01
   outer loop
     vertex 1.4721189369e+01 3.8888888889e-01 -1.6801984669e-08
     vertex 1.7590521817e+01 1.1111111111e-01 -4.8005670482e-09
     vertex 1.7590516596e+01 1.0270834981e-01 -4.2550579936e-02
   endloop
 endfacet
 facet normal  9.4549641992e-02 9.7665830152e-01 -1.9287023430e-01
   outer loop
     vertex 1.4721189369e+01 3.8888888889e-01 -1.6801984669e-08
     vertex 1.7590516596e+01 1.0270834981e-01 -4.2550579936e-02
     vertex 1.4721185192e+01 3.5947922434e-01 -1.4892702978e-01
   endloop
 endfacet
 facet normal  9.4576887217e-02 8.2771762099e-01 -5.5311730429e-01
   outer loop
     vertex 1.4721185192e+01 3.5947922434e-01 -1.4892702978e-01
     vertex 1.7590516596e+01 1.0270834981e-01 -4.2550579936e-02
     vertex 1.7590516650e+01 7.8611117356e-02 -7.8611102088e-02
   endloop
 endfacet
 facet normal  9.4576884149e-02 8.2771757067e-01 -5.5311738012e-01
   outer loop
     vertex 1.4721185192e+01 3.5947922434e-01 -1.4892702978e-01
     vertex 1.7590516650e+01 7.8611117356e-02 -7.8611102088e-02
     vertex 1.4721185236e+01 2.7513891075e-01 -2.7513885731e-01
   endloop
 endfacet
 facet normal  9.4576884691e-02 5.5311756491e-01 -8.2771744712e-01
   outer loop
     vertex 1.4721185236e+01 2.7513891075e-01 -2.7513885731e-01
     vertex 1.7590516650e+01 7.8611117356e-02 -7.8611102088e-02
     vertex 1.7590516596e+01 4.2550603116e-02 -1.0270834572e-01
   endloop
 endfacet
 facet normal  9.4576887783e-02 5.5311764101e-01 -8.2771739591e-01
   outer loop
     vertex 1.4721185236e+01 2.7513891075e-01 -2.7513885731e-01
     vertex 1.7590516596e+01 4.2550603116e-02 -1.0270834572e-01
     vertex 1.4721185192e+01 1.4892711091e-01 -3.5947921002e-01
   endloop
 endfacet
 facet normal  9.4549807412e-02 1.9287881295e-01 -9.7665659135e-01
   outer loop
     vertex 1.4721185192e+01 1.4892711091e-01 -3.5947921002e-01
     vertex 1.7590516596e+01 4.2550603116e-02 -1.0270834572e-01
     vertex 1.7590521817e+01 0.0000000000e+00 -1.1111111111e-01
   endloop
 endfacet
 facet normal  9.4549510277e-02 1.9287020522e-01 -9.7665832001e-01
   outer loop
     vertex 1.4721185192e+01 1.4892711091e-01 -3.5947921002e-01
     vertex 1.7590521817e+01 0.0000000000e+00 -1.1111111111e-01
     vertex 1.4721189369e+01 0.0000000000e+00 -3.8888888889e-01
   endloop
 endfacet
 facet normal  9.4549347080e-02 -1.9287882136e-01 -9.7665663426e-01
   outer loop
     vertex 1.4721189369e+01 0.0000000000e+00 -3.8888888889e-01
     vertex 1.7590521817e+01 0.0000000000e+00 -1.1111111111e-01
     vertex 1.7590516596e+01 -4.2550603116e-02 -1.0270834572e-01
   endloop
 endfacet
 facet normal  9.4549641800e-02 -1.9287020280e-01 -9.7665830776e-01
   outer loop
     vertex 1.4721189369e+01 0.0000000000e+00 -3.8888888889e-01
     vertex 1.7590516596e+01 -4.2550603116e-02 -1.0270834572e-01
     vertex 1.4721185192e+01 -1.4892711091e-01 -3.5947921002e-01
   endloop
 endfacet
 facet normal  9.4576889500e-02 -5.5311756465e-01 -8.2771744674e-01
   outer loop
     vertex 1.4721185192e+01 -1.4892711091e-01 -3.5947921002e-01
     vertex 1.7590516596e+01 -4.2550603116e-02 -1.0270834572e-01
     vertex 1.7590516650e+01 -7.8611117356e-02 -7.8611102088e-02
   endloop
 endfacet
 facet normal  9.4576886409e-02 -5.5311764109e-01 -8.2771739602e-01
   outer loop
     vertex 1.4721185192e+01 -1.4892711091e-01 -3.5947921002e-01
     vertex 1.7590516650e+01 -7.8611117356e-02 -7.8611102088e-02
     vertex 1.4721185236e+01 -2.7513891075e-01 -2.7513885731e-01
   endloop
 endfacet
 facet normal  9.4576882445e-02 -8.2771762137e-01 -5.5311730454e-01
   outer loop
     vertex 1.4721185236e+01 -2.7513891075e-01 -2.7513885731e-01
     vertex 1.7590516650e+01 -7.8611117356e-02 -7.8611102088e-02
     vertex 1.7590516596e+01 -1.0270834981e-01 -4.2550579936e-02
   endloop
 endfacet
 facet normal  9.4576885513e-02 -8.2771757056e-01 -5.5311738005e-01
   outer loop
     vertex 1.4721185236e+01 -2.7513891075e-01 -2.7513885731e-01
     vertex 1.7590516596e+01 -1.0270834981e-01 -4.2550579936e-02
     vertex 1.4721185192e+01 -3.5947922434e-01 -1.4892702978e-01
   endloop
 endfacet
 facet normal  9.4549807590e-02 -9.7665658525e-01 -1.9287884375e-01
   outer loop
     vertex 1.4721185192e+01 -3.5947922434e-01 -1.4892702978e-01
     vertex 1.7590516596e+01 -1.0270834981e-01 -4.2550579936e-02
     vertex 1.7590521817e+01 -1.1111111111e-01 -4.8005670482e-09
   endloop
 endfacet
 facet normal  9.4549510479e-02 -9.7665831377e-01 -1.9287023672e-01
   outer loop
     vertex 1.4721185192e+01 -3.5947922434e-01 -1.4892702978e-01
     vertex 1.7590521817e+01 -1.1111111111e-01 -4.8005670482e-09
     vertex 1.4721189369e+01 -3.8888888889e-01 -1.6801984669e-08
   endloop
 endfacet
 facet normal  9.4549347080e-02 -9.7665664259e-01 1.9287877916e-01
   outer loop
     vertex 1.4721189369e+01 -3.8888888889e-01 -1.6801984669e-08
     vertex 1.7590521817e+01 -1.1111111111e-01 -4.8005670482e-09
     vertex 1.7590516596e+01 -1.0270834756e-01 4.2550598678e-02
   endloop
 endfacet
 facet normal  9.4549641800e-02 -9.7665831609e-01 1.9287016060e-01
   outer loop
     vertex 1.4721189369e+01 -3.8888888889e-01 -1.6801984669e-08
     vertex 1.7590516596e+01 -1.0270834756e-01 4.2550598678e-02
     vertex 1.4721185192e+01 -3.5947921646e-01 1.4892709537e-01
   endloop
 endfacet
 facet normal  9.4576890610e-02 -8.2771750349e-01 5.5311747955e-01
   outer loop
     vertex 1.4721185192e+01 -3.5947921646e-01 1.4892709537e-01
     vertex 1.7590516596e+01 -1.0270834756e-01 4.2550598678e-02
     vertex 1.7590516650e+01 -7.8611112107e-02 7.8611108711e-02
   endloop
 endfacet
 facet normal  9.4576887523e-02 -8.2771745284e-01 5.5311755586e-01
   outer loop
     vertex 1.4721185192e+01 -3.5947921646e-01 1.4892709537e-01
     vertex 1.7590516650e+01 -7.8611112107e-02 7.8611108711e-02
     vertex 1.4721185236e+01 -2.7513889238e-01 2.7513888049e-01
   endloop
 endfacet
 facet normal  9.4576882642e-02 -5.5311737511e-01 8.2771757419e-01
   outer loop
     vertex 1.4721185236e+01 -2.7513889238e-01 2.7513888049e-01
     vertex 1.7590516650e+01 -7.8611112107e-02 7.8611108711e-02
     vertex 1.7590516596e+01 -4.2550584374e-02 1.0270834935e-01
   endloop
 endfacet
 facet normal  9.4576885710e-02 -5.5311745065e-01 8.2771752336e-01
   outer loop
     vertex 1.4721185236e+01 -2.7513889238e-01 2.7513888049e-01
     vertex 1.7590516596e+01 -4.2550584374e-02 1.0270834935e-01
     vertex 1.4721185192e+01 -1.4892704531e-01 3.5947922272e-01
   endloop
 endfacet
 facet normal  9.4549807365e-02 -1.9287881393e-01 9.7665659116e-01
   outer loop
     vertex 1.4721185192e+01 -1.4892704531e-01 3.5947922272e-01
     vertex 1.7590516596e+01 -4.2550584374e-02 1.0270834935e-01
     vertex 1.7590521817e+01 0.0000000000e+00 1.1111111111e-01
   endloop
 endfacet
 facet normal  9.4549510248e-02 -1.9287020672e-01 9.7665831972e-01
   outer loop
     vertex 1.4721185192e+01 -1.4892704531e-01 3.5947922272e-01
     vertex 1.7590521817e+01 0.0000000000e+00 1.1111111111e-01
     vertex 1.4721189369e+01 0.0000000000e+00 3.8888888889e-01
   endloop
 endfacet
 facet normal  4.5194403843e-02 1.9354293876e-01 9.8005030316e-01
   outer loop
     vertex 1.7590521817e+01 0.0000000000e+00 1.1111111111e-01
     vertex 1.9999990000e+01 0.0000000000e+00 0.0000000000e+00
     vertex 1.7590516596e+01 4.2550584374e-02 1.0270834935e-01
   endloop
 endfacet
 facet normal  4.5207491678e-02 5.5503986220e-01 8.3059438601e-01
   outer loop
     vertex 1.7590516596e+01 4.2550584374e-02 1.0270834935e-01
     vertex 1.9999990000e+01 0.0000000000e+00 0.0000000000e+00
     vertex 1.7590516650e+01 7.8611112107e-02 7.8611108711e-02
   endloop
 endfacet
 facet normal  4.5207493206e-02 8.3059431543e-01 5.5503996769e-01
   outer loop
     vertex 1.7590516650e+01 7.8611112107e-02 7.8611108711e-02
     vertex 1.9999990000e+01 0.0000000000e+00 0.0000000000e+00
     vertex 1.7590516596e+01 1.0270834756e-01 4.2550598678e-02
   endloop
 endfacet
 facet normal  4.5194403855e-02 9.8005031178e-01 1.9354289507e-01
   outer loop
     vertex 1.7590516596e+01 1.0270834756e-01 4.2550598678e-02
     vertex 1.9999990000e+01 0.0000000000e+00 0.0000000000e+00
     vertex 1.7590521817e+01 1.1111111111e-01 -4.8005670482e-09
   endloop
 endfacet
 facet normal  4.5194403955e-02 9.8005029722e-01 -1.9354296880e-01
   outer loop
     vertex 1.7590521817e+01 1.1111111111e-01 -4.8005670482e-09
     vertex 1.9999990000e+01 0.0000000000e+00 0.0000000000e+00
     vertex 1.7590516596e+01 1.0270834981e-01 -4.2550579936e-02
   endloop
 endfacet
 facet normal  4.5207491585e-02 8.3059443336e-01 -5.5503979135e-01
   outer loop
     vertex 1.7590516596e+01 1.0270834981e-01 -4.2550579936e-02
     vertex 1.9999990000e+01 0.0000000000e+00 0.0000000000e+00
     vertex 1.7590516650e+01 7.8611117356e-02 -7.8611102088e-02
   endloop
 endfacet
 facet normal  4.5207492670e-02 5.5504005312e-01 -8.3059425837e-01
   outer loop
     vertex 1.7590516650e+01 7.8611117356e-02 -7.8611102088e-02
     vertex 1.9999990000e+01 0.0000000000e+00 0.0000000000e+00
     vertex 1.7590516596e+01 4.2550603116e-02 -1.0270834572e-01
   endloop
 endfacet
 facet normal  4.5194403855e-02 1.9354293742e-01 -9.8005030342e-01
   outer loop
     vertex 1.7590516596e+01 4.2550603116e-02 -1.0270834572e-01
     vertex 1.9999990000e+01 0.0000000000e+00 0.0000000000e+00
     vertex 1.7590521817e+01 0.0000000000e+00 -1.1111111111e-01
   endloop
 endfacet
 facet normal  4.5194403855e-02 -1.9354293742e-01 -9.8005030342e-01
   outer loop
     vertex 1.7590521817e+01 0.0000000000e+00 -1.1111111111e-01
     vertex 1.9999990000e+01 0.0000000000e+00 0.0000000000e+00
     vertex 1.7590516596e+01 -4.2550603116e-02 -1.0270834572e-01
   endloop
 endfacet
 facet normal  4.5207492670e-02 -5.5504005312e-01 -8.3059425837e-01
   outer loop
     vertex 1.7590516596e+01 -4.2550603116e-02 -1.0270834572e-01
     vertex 1.9999990000e+01 0.0000000000e+00 0.0000000000e+00
     vertex 1.7590516650e+01 -7.8611117356e-02 -7.8611102088e-02
   endloop
 endfacet
 facet normal  4.5207491585e-02 -8.3059443336e-01 -5.5503979135e-01
   outer loop
     vertex 1.7590516650e+01 -7.8611117356e-02 -7.8611102088e-02
     vertex 1.9999990000e+01 0.0000000000e+00 0.0000000000e+00
     vertex 1.7590516596e+01 -1.0270834981e-01 -4.2550579936e-02
   endloop
 endfacet
 facet normal  4.5194403955e-02 -9.8005029722e-01 -1.9354296880e-01
   outer loop
     vertex 1.7590516596e+01 -1.0270834981e-01 -4.2550579936e-02
     vertex 1.9999990000e+01 0.0000000000e+00 0.0000000000e+00
     vertex 1.7590521817e+01 -1.1111111111e-01 -4.8005670482e-09
   endloop
 endfacet
 facet normal  4.5194403855e-02 -9.8005031178e-01 1.9354289507e-01
   outer loop
     vertex 1.7590521817e+01 -1.1111111111e-01 -4.8005670482e-09
     vertex 1.9999990000e+01 0.0000000000e+00 0.0000000000e+00
     vertex 1.7590516596e+01 -1.0270834756e-01 4.2550598678e-02
   endloop
 endfacet
 facet normal  4.5207493206e-02 -8.3059431543e-01 5.5503996769e-01
   outer loop
     vertex 1.7590516596e+01 -1.0270834756e-01 4.2550598678e-02
     vertex 1.9999990000e+01 0.0000000000e+00 0.0000000000e+00
     vertex 1.7590516650e+01 -7.8611112107e-02 7.8611108711e-02
   endloop
 endfacet
 facet normal  4.5207491678e-02 -5.5503986220e-01 8.3059438601e-01
   outer loop
     vertex 1.7590516650e+01 -7.8611112107e-02 7.8611108711e-02
     vertex 1.9999990000e+01 0.0000000000e+00 0.0000000000e+00
     vertex 1.7590516596e+01 -4.2550584374e-02 1.0270834935e-01
   endloop
 endfacet
 facet normal  4.5194403843e-02 -1.9354293876e-01 9.8005030316e-01
   outer loop
     vertex 1.7590516596e+01 -4.2550584374e-02 1.0270834935e-01
     vertex 1.9999990000e+01 0.0000000000e+00 0.0000000000e+00
     vertex 1.7590521817e+01 0.0000000000e+00 1.1111111111e-01
   endloop
 endfacet
endsolid
